<svg width="79" height="79" viewBox="0 0 79 79" fill="none" xmlns="http://www.w3.org/2000/svg">
<path d="M39.4519 54.5791V61.369C40.0342 62.0962 42.0224 64.3265 45.3201 65.0061C48.1814 65.5884 50.4612 64.6181 51.625 64.133C54.4386 62.9683 56.0874 61.1259 56.766 60.2053V31.4939C56.766 21.9399 49.0068 14.1797 39.4519 14.1797C29.8989 14.1797 22.1377 21.9399 22.1377 31.4939V60.2529C23.4838 61.984 25.2549 63.3374 27.2788 64.1816C28.4435 64.6668 30.7224 65.5884 33.5836 65.0547C36.8813 64.4237 38.8705 62.1935 39.4519 61.4176V54.5791Z" stroke="#886750" stroke-width="3.03846" stroke-miterlimit="10"/>
<path d="M39.451 55.3061C39.8121 55.3131 40.1709 55.248 40.5066 55.1146C40.8422 54.9813 41.1478 54.7823 41.4056 54.5295C41.6634 54.2766 41.8682 53.9748 42.0081 53.6419C42.1479 53.3089 42.2199 52.9514 42.2199 52.5902C42.2199 52.2291 42.1479 51.8716 42.0081 51.5386C41.8682 51.2056 41.6634 50.9039 41.4056 50.651C41.1478 50.3981 40.8422 50.1992 40.5066 50.0658C40.1709 49.9325 39.8121 49.8674 39.451 49.8744C38.7398 49.8881 38.0624 50.1803 37.5643 50.6881C37.0661 51.1959 36.7871 51.8789 36.7871 52.5902C36.7871 53.3016 37.0661 53.9845 37.5643 54.4924C38.0624 55.0002 38.7398 55.2924 39.451 55.3061ZM46.2896 40.4166C46.6507 40.4236 47.0095 40.3585 47.3451 40.2252C47.6807 40.0918 47.9864 39.8929 48.2442 39.64C48.502 39.3871 48.7068 39.0854 48.8466 38.7524C48.9864 38.4194 49.0584 38.0619 49.0584 37.7008C49.0584 37.3396 48.9864 36.9821 48.8466 36.6491C48.7068 36.3162 48.502 36.0144 48.2442 35.7615C47.9864 35.5086 47.6807 35.3097 47.3451 35.1764C47.0095 35.043 46.6507 34.9779 46.2896 34.9849C45.5784 34.9986 44.9009 35.2908 44.4028 35.7986C43.9047 36.3065 43.6257 36.9894 43.6257 37.7008C43.6257 38.4121 43.9047 39.0951 44.4028 39.6029C44.9009 40.1107 45.5784 40.4029 46.2896 40.4166Z" fill="#886750"/>
<path d="M28.2479 17.8662C26.9879 17.38 24.4174 16.8959 21.9927 17.8662C19.8587 18.7382 18.6463 20.3385 17.9667 21.2601C12.1471 29.3597 7.15184 38.0892 3.22311 47.2552C2.4043 49.0852 1.88059 51.0333 1.67147 53.0272C1.52562 54.433 1.38079 55.6454 1.7687 57.1008C2.69036 60.9323 5.93949 62.9691 6.56947 63.357C10.0617 65.5396 13.6025 65.1031 14.669 64.9086C17.9181 64.3759 21.3131 60.8837 22.1375 60.1565M50.7527 17.8662C52.0127 17.38 54.5832 16.8959 57.0079 17.8662C59.1419 18.7382 60.3543 20.3385 61.0339 21.2601C66.8536 29.3597 71.8488 38.0892 75.7775 47.2552C76.5963 49.0852 77.12 51.0333 77.3292 53.0272C77.475 54.433 77.6198 55.6454 77.2319 57.1008C76.3103 60.9323 73.0611 62.9691 72.4312 63.357C68.939 65.5396 65.3981 65.1031 64.3316 64.9086C61.0825 64.3759 57.6875 60.8837 56.8631 60.1565" stroke="#886750" stroke-width="3.03846" stroke-miterlimit="10"/>
</svg>
