<svg width="69" height="70" viewBox="0 0 69 70" fill="none" xmlns="http://www.w3.org/2000/svg">
<g clip-path="url(#clip0_3059_1048)">
<path d="M17.1614 30.4613C17.1614 24.8659 13.3961 20.3206 8.77796 20.3206C4.15979 20.3216 0.394531 24.8659 0.394531 30.4633C0.394531 36.0587 4.15979 40.5875 8.77796 40.5875C13.3961 40.5875 17.1614 36.0432 17.1614 30.4623V30.4613ZM8.77796 37.749C5.72087 37.749 3.24276 34.4801 3.24276 30.4458C3.24276 26.4124 5.7199 23.1436 8.77796 23.1436C11.835 23.1436 14.2811 26.427 14.2811 30.4623C14.2811 34.4957 11.835 37.749 8.77796 37.749ZM68.3945 30.4458C68.3945 24.8649 64.6293 20.3216 60.0111 20.3216C55.3929 20.3216 51.6277 24.8649 51.6277 30.4623C51.6065 30.6603 51.6276 30.8605 51.6895 31.0497C51.7515 31.239 51.8529 31.4129 51.9871 31.56C52.1217 31.7087 52.286 31.8275 52.4694 31.9087C52.6528 31.9898 52.8512 32.0316 53.0518 32.0312C53.2522 32.031 53.4503 31.9891 53.6336 31.9081C53.8169 31.8272 53.9814 31.709 54.1165 31.561C54.2503 31.4135 54.3515 31.2393 54.4135 31.05C54.4754 30.8607 54.4967 30.6604 54.4759 30.4623C54.4759 26.4435 56.953 23.1591 60.0111 23.1591C63.0682 23.1591 65.5463 26.428 65.5463 30.4613C65.5463 34.4801 63.0692 37.749 60.0111 37.749C59.6322 37.7485 59.2684 37.8975 58.9989 38.1638C58.8663 38.2951 58.7611 38.4514 58.6892 38.6236C58.6174 38.7959 58.5804 38.9807 58.5804 39.1673C58.5804 39.3539 58.6174 39.5386 58.6892 39.7109C58.7611 39.8831 58.8663 40.0394 58.9989 40.1708C59.2683 40.4374 59.6321 40.5868 60.0111 40.5865C64.6293 40.5865 68.3945 36.0422 68.3945 30.4458ZM44.8539 22.7288C49.4721 22.7288 53.2373 18.1844 53.2373 12.588C53.2373 6.99161 49.4556 2.44727 44.8539 2.44727C40.2513 2.44727 36.4705 6.99161 36.4705 12.588C36.4705 18.1844 40.2037 22.7288 44.8539 22.7288ZM44.8539 5.28578C47.911 5.28578 50.3891 8.55367 50.3891 12.588C50.3891 16.6224 47.8789 19.8902 44.8539 19.8902C41.8289 19.8902 39.3187 16.6224 39.3187 12.588C39.3187 8.55367 41.7803 5.28578 44.8539 5.28578ZM23.9352 22.7288C28.5533 22.7288 32.3186 18.1844 32.3186 12.588C32.3186 6.99161 28.5854 2.44727 23.9352 2.44727C19.2849 2.44727 15.5517 6.99161 15.5517 12.588C15.5517 18.1844 19.3335 22.7288 23.9352 22.7288ZM23.9352 5.28578C26.9932 5.28578 29.4704 8.55367 29.4704 12.588C29.4704 16.6224 27.0088 19.8902 23.9352 19.8902C20.8625 19.8902 18.4 16.6224 18.4 12.588C18.4 8.55367 20.9101 5.28578 23.9352 5.28578ZM54.508 48.1287L45.6582 32.7743C42.7294 27.719 38.7222 24.929 34.3945 24.929C30.0658 24.929 26.0597 27.719 23.1308 32.7733L14.2811 48.1122C13.6941 49.1246 13.2092 50.193 12.8337 51.3014C12.2876 52.7094 12.014 54.2083 12.0274 55.7185C12.0623 58.763 13.2628 61.6784 15.3817 63.8649C17.512 66.0632 20.3954 67.3736 23.4524 67.533H23.9352C25.5434 67.5383 27.1362 67.2181 28.6174 66.5917C29.6802 66.1778 31.4501 65.3803 33.2842 64.5196L33.9448 64.7906C37.5221 66.4335 41.3867 67.3595 45.3202 67.5165C48.3819 67.3698 51.2747 66.0697 53.417 63.8775C55.5477 61.6967 56.7616 58.7824 56.8093 55.734C56.7732 54.256 56.5071 52.7926 56.0205 51.3966C55.6284 50.2588 55.1216 49.1639 54.508 48.1287ZM45.3046 64.6945C42.387 64.6002 39.5096 63.985 36.8085 62.8779L37.3554 62.6059L38.9641 61.8725C39.071 61.8113 39.1681 61.7365 39.2536 61.649L40.8633 60.836L42.3758 60.0705C42.7109 59.8995 42.9645 59.6042 43.081 59.2486C43.1389 59.0725 43.1613 58.8866 43.1472 58.7018C43.133 58.5169 43.0825 58.3366 42.9985 58.1713C42.8279 57.8365 42.5323 57.5824 42.1757 57.4641C41.8176 57.3449 41.427 57.3707 41.0877 57.536L39.479 58.3005C36.9853 59.5605 32.8179 61.6811 31.0635 62.399L30.9032 62.5107C29.5675 63.1324 28.3289 63.6745 27.5557 63.9776C26.3429 64.5171 25.0199 64.7627 23.6942 64.6945H23.5485C21.2246 64.5754 19.0311 63.5839 17.4062 61.9181C15.7897 60.2609 14.8674 58.0487 14.828 55.734C14.8318 55.6969 14.8318 55.6594 14.828 55.6223C14.8343 54.4813 15.0527 53.3514 15.4721 52.2903C15.7917 51.348 16.2065 50.4397 16.7106 49.58L25.5448 34.1926C27.9423 30.0475 31.0635 27.8152 34.346 27.8152C37.6294 27.8152 40.7826 30.0951 43.1471 34.1926L52.0454 49.547C52.5486 50.4086 52.9634 51.316 53.2849 52.2573C53.69 53.3744 53.9183 54.5479 53.961 55.734C53.9267 58.0394 53.0148 60.245 51.411 61.9016C49.7985 63.5669 47.619 64.5639 45.3046 64.6945Z" fill="white"/>
</g>
<defs>
<clipPath id="clip0_3059_1048">
<rect width="68" height="70" fill="white" transform="translate(0.394531 -0.00976562)"/>
</clipPath>
</defs>
</svg>
