<svg width="101" height="101" viewBox="0 0 101 101" fill="none"
  xmlns="http://www.w3.org/2000/svg">
  <g clip-path="url(#clip0_3059_1063)">
    <path d="M88.0733 32.6588L50.9145 14.3236C50.55 14.146 50.1252 14.146 49.7607 14.3236L12.5861 32.6588C12.2811 32.8034 12.0469 33.0663 11.9367 33.3879C11.8266 33.7094 11.8499 34.0623 12.0013 34.3662C12.3312 35.0014 13.1019 35.256 13.7399 34.9407L50.3297 16.8927L86.9195 34.9407C87.1023 35.0276 87.3023 35.0713 87.5043 35.0684C87.9887 35.0704 88.4337 34.7995 88.6582 34.3662C88.8095 34.0623 88.8328 33.7094 88.7227 33.3879C88.6126 33.0663 88.3784 32.8034 88.0733 32.6588Z" fill="#886750"/>
    <path d="M76.2982 72.4568C75.3026 72.0013 74.1728 71.9443 73.1371 72.2972L59.4495 75.4887C59.5676 74.3152 59.2525 73.1389 58.5644 72.1855C57.8041 71.1462 56.668 70.4523 55.4033 70.2547L43.3437 67.6217H43.1856C40.4581 66.8641 37.539 67.3417 35.188 68.9302C33.2439 70.2547 23.6816 76.51 23.5709 76.5739C23.2861 76.7567 23.0867 77.0482 23.0182 77.3819C22.9497 77.7156 23.018 78.0631 23.2074 78.3451C23.4489 78.705 23.8517 78.9202 24.2822 78.9196C24.5341 78.9208 24.781 78.8488 24.9934 78.7122C25.3886 78.4568 34.698 72.3292 36.6421 71.0366C38.4568 69.8103 40.7265 69.4872 42.8063 70.1589H42.9169L54.8975 72.776C55.5275 72.8536 56.0985 73.188 56.4781 73.7015C56.8412 74.1958 56.9895 74.8179 56.889 75.4249C56.6712 76.6834 55.5018 77.5388 54.2495 77.3558L46.3467 75.76C46.0091 75.6738 45.6512 75.7284 45.3539 75.9115C45.0566 76.0946 44.8447 76.3908 44.7662 76.7334C44.6964 77.068 44.7626 77.4169 44.9497 77.7019C45.1369 77.9868 45.4295 78.1841 45.7619 78.2494L53.6647 79.8451C53.9277 79.8666 54.192 79.8666 54.455 79.8451C55.773 79.8389 57.0349 79.3052 57.9638 78.3611L73.7693 74.659H73.9116C74.3225 74.4929 74.7809 74.4929 75.1918 74.659C75.5997 74.8356 75.9151 75.1773 76.0611 75.6004C76.261 76.0201 76.2693 76.5069 76.084 76.9332C75.8987 77.3596 75.5382 77.6829 75.097 77.8185L58.1377 83.9143C57.3032 84.2647 56.3713 84.2987 55.5139 84.0101L41.289 81.01C40.9882 80.9466 40.675 80.9918 40.4038 81.1377L30.5886 86.3239C30.2904 86.4799 30.067 86.7506 29.9688 87.0749C29.8707 87.3991 29.9061 87.7497 30.067 88.0473C30.4139 88.6738 31.1919 88.9073 31.8214 88.5739L41.3048 83.5952L55.0556 86.4994C56.4109 86.8973 57.8599 86.8185 59.165 86.276L76.0137 80.2122C77.6193 79.6483 78.7178 78.1477 78.7807 76.4326C78.8436 74.7175 77.8581 73.1391 76.2982 72.4568Z" fill="#886750"/>
    <path fill-rule="evenodd" clip-rule="evenodd" d="M34.0025 44.516C33.8119 47.1448 35.762 49.4345 38.3648 49.6384C40.9424 49.4017 42.8558 47.1219 42.6639 44.516C42.8545 41.8872 40.9045 39.5975 38.3016 39.3936C35.7241 39.6303 33.8107 41.9101 34.0025 44.516ZM40.5302 44.516C40.6873 45.9246 39.7438 47.2178 38.3648 47.4841C36.9603 47.2472 35.9828 45.9453 36.1362 44.516C35.9801 43.1023 36.932 41.8069 38.3174 41.5479C39.6964 41.8142 40.6399 43.1074 40.4828 44.516H40.5302Z" fill="#886750"/>
    <path fill-rule="evenodd" clip-rule="evenodd" d="M66.7043 44.516C66.8948 47.1448 64.9448 49.4345 62.3419 49.6384C59.7454 49.4263 57.8046 47.139 57.9954 44.516C57.8046 41.893 59.7454 39.6057 62.3419 39.3936C64.9448 39.5975 66.8948 41.8872 66.7043 44.516ZM64.5231 44.516C64.6881 43.0965 63.7341 41.7912 62.3419 41.532C60.9562 41.7985 60.0106 43.1017 60.1766 44.516C60.0204 45.9297 60.9724 47.2251 62.3577 47.4841C63.7367 47.2178 64.6802 45.9246 64.5231 44.516Z" fill="#886750"/>
    <path fill-rule="evenodd" clip-rule="evenodd" d="M55.2297 31.0791C52.6269 31.2829 50.6768 33.5727 50.8674 36.2014C50.6768 38.8302 52.6269 41.12 55.2297 41.3238C57.8326 41.12 59.7826 38.8302 59.5921 36.2014C59.7826 33.5727 57.8326 31.2829 55.2297 31.0791ZM55.2297 39.1855C53.8507 38.9192 52.9073 37.626 53.0644 36.2174C52.9073 34.8088 53.8507 33.5156 55.2297 33.2493C56.6087 33.5156 57.5522 34.8088 57.3951 36.2174C57.5522 37.626 56.6087 38.9192 55.2297 39.1855Z" fill="#886750"/>
    <path fill-rule="evenodd" clip-rule="evenodd" d="M41.0676 36.2014C40.877 33.5727 42.827 31.2829 45.4299 31.0791C48.0391 31.2746 49.9984 33.5669 49.808 36.2014C49.9984 38.836 48.0391 41.1283 45.4299 41.3238C42.827 41.12 40.877 38.8302 41.0676 36.2014ZM43.2645 36.2174C43.1074 37.626 44.0509 38.9192 45.4299 39.1855C46.8089 38.9192 47.7524 37.626 47.5953 36.2174C47.7524 34.8088 46.8089 33.5156 45.4299 33.2493C44.0509 33.5156 43.1074 34.8088 43.2645 36.2174Z" fill="#886750"/>
    <path fill-rule="evenodd" clip-rule="evenodd" d="M44.671 45.3767L40.4984 52.4938C40.2056 52.9985 39.9672 53.5335 39.7871 54.0895C39.5094 54.7951 39.3699 55.5484 39.3762 56.3076C39.4493 59.5066 41.9779 62.0945 45.1452 62.2119H45.4455C46.2414 62.2166 47.0305 62.0648 47.7689 61.7651L48.4644 61.5417C49.0608 61.3085 49.6906 61.1738 50.3294 61.1427C50.9684 61.1732 51.5982 61.308 52.1945 61.5417L52.9689 61.7332C53.7654 61.9759 54.588 62.1206 55.4188 62.164H55.4978C58.6736 62.038 61.2024 59.4359 61.2669 56.2278C61.2467 55.4986 61.1134 54.777 60.8717 54.0895C60.6821 53.5347 60.4386 53.0001 60.1447 52.4938L55.972 45.3608C54.9152 43.1361 52.7522 41.6599 50.3136 41.499C47.8774 41.6686 45.7208 43.1506 44.671 45.3767ZM54.1544 46.4618L58.327 53.5948C58.5484 53.9697 58.7336 54.3651 58.8802 54.7757C59.042 55.2432 59.1326 55.7328 59.1489 56.2278C59.1022 58.2539 57.5181 59.9019 55.5136 60.0098C54.8759 59.9728 54.2446 59.8603 53.6328 59.6746L52.9531 59.4672C52.1184 59.1206 51.231 58.9209 50.3294 58.8768C49.4591 58.9043 48.5993 59.0768 47.7847 59.3874L47.1051 59.5949H46.9787C46.4784 59.8056 45.9401 59.9089 45.3981 59.8981H45.2558C43.2326 59.8232 41.6143 58.1754 41.5574 56.1321C41.5893 55.6621 41.7072 55.2023 41.9051 54.7757C42.049 54.364 42.2344 53.9683 42.4583 53.5948L46.6309 46.4618C47.3168 44.9352 48.7437 43.8819 50.3926 43.6852C52.0146 43.8997 53.4125 44.9431 54.0911 46.4459L54.1544 46.4618Z" fill="#886750"/>
  </g>
  <defs>
    <clipPath id="clip0_3059_1063">
      <rect width="100" height="100" fill="white" transform="translate(0.330078 0.599609)"/>
    </clipPath>
  </defs>
</svg>
