<svg width="137" height="32" viewBox="0 0 137 32" fill="none" xmlns="http://www.w3.org/2000/svg">
<g clip-path="url(#clip0_3554_1335)">
<path d="M39.5002 9.90054H42.9199V23.7679H39.5002V9.90054ZM44.2835 18.5517C44.2835 15.1168 46.4141 13.058 49.61 13.058C52.806 13.058 54.9366 15.1168 54.9366 18.5517C54.9366 21.9864 52.8805 24.0666 49.61 24.0666C46.3395 24.0666 44.2835 22.0611 44.2835 18.5517ZM51.5489 18.5517C51.5489 16.6636 50.8138 15.5542 49.642 15.5542C48.4701 15.5542 47.7457 16.6209 47.7457 18.5517C47.7457 20.4823 48.4701 21.5384 49.642 21.5384C50.8138 21.5384 51.5702 20.4824 51.5702 18.5623L51.5489 18.5517ZM56.3002 24.4826H59.6026C59.753 24.8386 60.0156 25.1356 60.3503 25.3282C60.6849 25.5208 61.0735 25.5985 61.4564 25.5493C62.7667 25.5493 63.4484 24.8453 63.4484 23.7999V21.8798H63.4591C63.1769 22.4777 62.7206 22.976 62.1501 23.3092C61.5797 23.6424 60.9218 23.7949 60.2632 23.7465C57.7597 23.7465 56.0978 21.8371 56.0978 18.5517C56.0978 15.2661 57.6851 13.218 60.359 13.218C61.0346 13.1818 61.7047 13.3563 62.2771 13.7174C62.8494 14.0785 63.2959 14.6084 63.5549 15.2341H63.4591V13.3034H66.8468V23.6932C66.8468 26.2 64.6309 27.7681 61.3711 27.7681C58.4095 27.7574 56.5133 26.4027 56.3215 24.4933L56.3002 24.4826ZM63.4591 18.5517C63.4591 16.8769 62.6921 15.8208 61.4776 15.8208C60.2632 15.8208 59.5174 16.8876 59.5174 18.5517C59.5174 20.2157 60.2525 21.1971 61.4776 21.1971C62.7028 21.1971 63.4591 20.2903 63.4591 18.5517ZM68.1998 18.5517C68.1998 15.1168 70.3304 13.058 73.5263 13.058C76.7223 13.058 78.8529 15.1168 78.8529 18.5517C78.8529 21.9864 76.7862 24.0666 73.5263 24.0666C70.2665 24.0666 68.221 22.0611 68.221 18.5517H68.1998ZM75.4652 18.5517C75.4652 16.6636 74.7195 15.5542 73.5583 15.5542C72.397 15.5542 71.662 16.6209 71.662 18.5517C71.662 20.4823 72.3864 21.5384 73.5583 21.5384C74.7301 21.5384 75.4865 20.4824 75.4865 18.5623L75.4652 18.5517ZM80.2378 10.7752C80.2229 10.4264 80.3126 10.0812 80.4953 9.78382C80.678 9.48647 80.9454 9.25069 81.263 9.10677C81.5807 8.96285 81.934 8.91738 82.2777 8.97616C82.6214 9.03502 82.9396 9.19544 83.1915 9.43687C83.4434 9.67831 83.6173 9.98963 83.6909 10.3309C83.7646 10.6721 83.7347 11.0276 83.6049 11.3517C83.4752 11.6757 83.2515 11.9534 82.9628 12.1492C82.6741 12.3449 82.3335 12.4497 81.9849 12.45C81.7621 12.4557 81.5404 12.417 81.3326 12.3362C81.1248 12.2553 80.9352 12.134 80.7746 11.9792C80.6141 11.8243 80.4858 11.6391 80.3973 11.4343C80.3088 11.2295 80.2618 11.0091 80.2591 10.7859L80.2378 10.7752ZM80.2378 13.2927H83.7001V23.8105H80.291L80.2378 13.2927ZM96.1534 18.5517C96.1534 21.9758 94.6196 23.9599 92.0096 23.9599C91.3413 24.0012 90.6765 23.8361 90.1048 23.487C89.533 23.1379 89.0831 22.6216 88.8136 22.0078H88.7498V27.1921H85.3296V13.3247H88.728V15.2021H88.7926C89.052 14.5762 89.4986 14.0458 90.0703 13.6831C90.642 13.3204 91.312 13.1431 91.9878 13.1754C94.6725 13.154 96.2172 15.1275 96.2172 18.5623L96.1534 18.5517ZM92.6703 18.5517C92.6703 16.8876 91.8921 15.8102 90.6882 15.8102C89.4844 15.8102 88.728 16.8769 88.7179 18.5517C88.707 20.2263 89.4844 21.2824 90.6882 21.2824C91.8921 21.2824 92.7341 20.2903 92.7341 18.5623L92.6703 18.5517ZM101.991 13.0473C104.857 13.0473 106.636 14.4021 106.657 16.5782H103.536C103.536 15.8208 102.908 15.3515 101.97 15.3515C101.033 15.3515 100.585 15.7142 100.585 16.2582C100.585 16.8022 100.98 16.9729 101.768 17.1329L103.962 17.5809C106.093 18.029 106.945 18.8823 106.945 20.4717C106.945 22.6051 104.974 24.0559 102.045 24.0559C99.1152 24.0559 97.2078 22.6478 97.0701 20.5037H100.383C100.479 21.2824 101.096 21.7411 102.098 21.7411C103.099 21.7411 103.568 21.4211 103.568 20.8557C103.568 20.2903 103.249 20.1943 102.428 20.0237L100.447 19.6077C98.3907 19.1703 97.3144 18.093 97.3144 16.4822C97.3791 14.3914 99.1681 13.058 102.055 13.058L101.991 13.0473ZM118.397 23.7999H115.084V21.8264H115.02C114.835 22.4847 114.431 23.06 113.875 23.4575C113.32 23.8551 112.645 24.051 111.963 24.0132C111.448 24.0301 110.935 23.9376 110.459 23.7421C109.982 23.5464 109.552 23.2521 109.197 22.8784C108.842 22.5047 108.57 22.06 108.398 21.5735C108.226 21.0871 108.16 20.5698 108.202 20.0557V13.3034H111.622V19.3197C111.622 20.557 112.272 21.2291 113.337 21.2291C113.587 21.2272 113.833 21.1717 114.06 21.0662C114.287 20.9607 114.488 20.8077 114.651 20.6177C114.813 20.4275 114.933 20.2048 115.003 19.9643C115.072 19.7238 115.088 19.4712 115.052 19.2237V13.3034H118.462L118.397 23.7999ZM120.048 13.2927H123.373V15.3195H123.447C123.63 14.6702 124.024 14.1002 124.566 13.6988C125.107 13.2973 125.767 13.087 126.44 13.1007C127.117 13.0418 127.791 13.2376 128.331 13.65C128.871 14.0623 129.237 14.6614 129.359 15.3301H129.509C129.721 14.6578 130.15 14.0748 130.728 13.6716C131.306 13.2684 132.001 13.0677 132.705 13.1007C133.172 13.0829 133.638 13.1641 134.072 13.3392C134.506 13.5142 134.899 13.779 135.223 14.1164C135.548 14.4537 135.798 14.8559 135.957 15.2967C136.116 15.7375 136.18 16.2069 136.146 16.6742V23.8105H132.705V17.5489C132.705 16.4822 132.203 15.8848 131.235 15.8848C131.019 15.8813 130.806 15.9244 130.609 16.0111C130.413 16.0978 130.237 16.2261 130.094 16.3872C129.951 16.5483 129.845 16.7383 129.782 16.9444C129.72 17.1505 129.703 17.3676 129.732 17.5809V23.8105H126.472V17.5169C126.472 16.4502 125.95 15.8848 125.013 15.8848C124.796 15.8831 124.581 15.9279 124.382 16.0163C124.184 16.1047 124.006 16.2345 123.862 16.3972C123.718 16.5599 123.609 16.7516 123.546 16.9594C123.481 17.1672 123.463 17.3864 123.489 17.6023V23.8105H120.07L120.048 13.2927Z" fill="#282938"/>
<path d="M32.7361 10.8053C32.7361 8.68221 32.0958 6.60859 30.899 4.85604C29.7022 3.10347 28.0048 1.75371 26.0289 0.983531C24.053 0.213355 21.8909 0.0586784 19.8258 0.53976C17.7606 1.02085 15.8888 2.11525 14.4552 3.67964H1.16016V31.777H29.2311V18.6457C30.3329 17.659 31.2145 16.4507 31.8185 15.0997C32.4223 13.7487 32.735 12.2855 32.7361 10.8053ZM27.3349 10.8053C27.337 11.8227 27.0377 12.8178 26.4747 13.6648C25.9118 14.5117 25.1106 15.1723 24.1725 15.5631C23.2344 15.954 22.2016 16.0573 21.2048 15.8601C20.2081 15.6629 19.2922 15.1741 18.573 14.4554C17.8538 13.7368 17.3637 12.8207 17.1647 11.823C16.9658 10.8254 17.0668 9.79101 17.4551 8.85088C17.8435 7.91074 18.5016 7.1071 19.3463 6.54166C20.1909 5.97623 21.184 5.67441 22.2001 5.6744C23.5601 5.6744 24.8645 6.21464 25.8272 7.17657C26.7898 8.1385 27.3321 9.44356 27.3349 10.8053ZM23.83 26.3688H6.56129V9.08794H11.824C11.7223 9.65484 11.6688 10.2293 11.6641 10.8053C11.667 13.6025 12.7779 16.2842 14.7532 18.2621C16.7284 20.2399 19.4066 21.3524 22.2001 21.3552C22.7462 21.3523 23.2912 21.306 23.83 21.2165V26.3688Z" fill="#282938"/>
</g>
<defs>
<clipPath id="clip0_3554_1335">
<rect width="136" height="32" fill="white" transform="translate(0.5)"/>
</clipPath>
</defs>
</svg>
