<svg width="25" height="24" viewBox="0 0 25 24" fill="none" xmlns="http://www.w3.org/2000/svg">
<g clip-path="url(#clip0_3556_1287)">
<path d="M15.4498 9.05108C16.2723 9.8735 17.6105 9.87355 18.433 9.05108C18.8314 8.65264 19.0508 8.12295 19.0508 7.55952C19.0508 6.99608 18.8314 6.46639 18.433 6.068C18.0218 5.65677 17.4816 5.45117 16.9414 5.45117C16.4013 5.45117 15.8611 5.65677 15.4499 6.068C15.0515 6.46639 14.832 6.99608 14.832 7.55952C14.832 8.12295 15.0515 8.65269 15.4498 9.05108Z" fill="#232536"/>
<path d="M6.60492 6.48047L4.52565 6.64111C3.94708 6.68583 3.43179 6.98906 3.11182 7.47304L0.713854 11.0998C0.471184 11.4668 0.432606 11.9262 0.610589 12.3285C0.788619 12.7309 1.15448 13.0113 1.58924 13.0787L3.49305 13.3735C3.93841 11.0101 5.00452 8.6525 6.60492 6.48047Z" fill="#FFD050"/>
<path d="M11.125 21.0064L11.4199 22.9102C11.4872 23.345 11.7677 23.7108 12.17 23.8888C12.3374 23.9629 12.5146 23.9994 12.6908 23.9994C12.9385 23.9994 13.1844 23.9273 13.3987 23.7855L17.0256 21.3876C17.5096 21.0676 17.8128 20.5523 17.8575 19.9738L18.0181 17.8945C15.846 19.495 13.4885 20.5611 11.125 21.0064Z" fill="#FFD050"/>
<path d="M10.4095 19.686C10.4756 19.686 10.542 19.6805 10.6084 19.6695C11.5985 19.5039 12.5529 19.225 13.4633 18.8599L5.63853 11.0352C5.27347 11.9455 4.99456 12.8999 4.829 13.8901C4.76375 14.2804 4.89467 14.6781 5.17447 14.9579L9.54056 19.324C9.77287 19.5563 10.0864 19.686 10.4095 19.686Z" fill="#FFD050"/>
<path d="M22.5865 10.6407C24.5013 6.93881 24.5722 3.02684 24.4721 1.19216C24.4379 0.563527 23.9367 0.0623433 23.308 0.0280779C23.0093 0.0117655 22.6552 0 22.2562 0C20.2047 0 16.9586 0.310732 13.8595 1.9137C11.3966 3.18762 8.16708 5.99264 6.26172 9.67896C6.28422 9.69653 6.3062 9.71519 6.32692 9.73591L14.7644 18.1733C14.7851 18.1941 14.8037 18.216 14.8213 18.2385C18.5076 16.3331 21.3126 13.1036 22.5865 10.6407ZM14.4547 5.07371C15.8254 3.70305 18.0557 3.70291 19.4265 5.07371C20.0905 5.73769 20.4562 6.62057 20.4562 7.55961C20.4562 8.49865 20.0905 9.38154 19.4265 10.0455C18.7412 10.7308 17.8407 11.0735 16.9406 11.0736C16.0402 11.0736 15.1402 10.731 14.4547 10.0455C13.7907 9.38154 13.425 8.49865 13.425 7.55961C13.425 6.62057 13.7907 5.73769 14.4547 5.07371Z" fill="#232536"/>
<path d="M1.21682 19.7781C1.39677 19.7781 1.57673 19.7094 1.71398 19.5721L4.00959 17.2765C4.28418 17.0019 4.28418 16.5567 4.00959 16.2821C3.73504 16.0075 3.28982 16.0075 3.01523 16.2821L0.719617 18.5777C0.445023 18.8523 0.445023 19.2975 0.719617 19.5721C0.856914 19.7094 1.03687 19.7781 1.21682 19.7781Z" fill="#FFD050"/>
<path d="M6.11382 18.3856C5.83927 18.111 5.39405 18.111 5.11946 18.3856L0.705945 22.7992C0.431352 23.0737 0.431352 23.5189 0.705945 23.7935C0.843242 23.9308 1.0232 23.9994 1.20315 23.9994C1.3831 23.9994 1.56305 23.9308 1.7003 23.7935L6.11377 19.38C6.38841 19.1054 6.38841 18.6602 6.11382 18.3856Z" fill="#FFD050"/>
<path d="M7.22221 20.4911L4.92665 22.7867C4.65205 23.0613 4.65205 23.5065 4.92665 23.7811C5.06395 23.9184 5.2439 23.987 5.4238 23.987C5.60371 23.987 5.78371 23.9184 5.92096 23.7811L8.21657 21.4855C8.49116 21.2109 8.49116 20.7657 8.21657 20.4911C7.94202 20.2165 7.4968 20.2165 7.22221 20.4911Z" fill="#FFD050"/>
</g>
<defs>
<clipPath id="clip0_3556_1287">
<rect width="24" height="24" fill="white" transform="translate(0.5)"/>
</clipPath>
</defs>
</svg>
