<svg width="92" height="32" viewBox="0 0 92 32" fill="none" xmlns="http://www.w3.org/2000/svg">
<path d="M12.4727 24L2.27734 17.5312V16.3359L12.4727 10.1016V13.3359L6.00391 16.8984L12.4727 20.7656V24ZM27.1445 24V8.29688H30.4023V24H27.1445ZM22.3164 11.1094V8.29688H35.2305V11.1094H22.3164ZM37.8086 24V12.1641H40.7852V24H37.8086ZM40.7852 17.3906V14.3906C41.1914 13.6875 41.668 13.1016 42.2148 12.6328C42.7773 12.1641 43.4102 11.9297 44.1133 11.9297C44.5508 11.9297 44.9336 12 45.2617 12.1406V15.4922C45.0273 15.3516 44.7773 15.25 44.5117 15.1875C44.2617 15.1094 43.9883 15.0703 43.6914 15.0703C43.0195 15.0703 42.4492 15.2969 41.9805 15.75C41.5273 16.1875 41.1289 16.7344 40.7852 17.3906ZM65.0745 9.192C64.9465 9.848 64.7705 10.464 64.5465 11.04C64.3225 11.616 64.0105 12.136 63.6105 12.6C63.2265 13.048 62.7145 13.432 62.0745 13.752C61.4345 14.056 60.6185 14.28 59.6265 14.424V24H56.8905L56.4105 22.32H56.1945C55.9225 22.768 55.5705 23.136 55.1385 23.424C54.7225 23.696 54.2585 23.896 53.7465 24.024C53.2505 24.168 52.7305 24.24 52.1865 24.24C51.2585 24.24 50.4425 24.072 49.7385 23.736C49.0345 23.4 48.4905 22.88 48.1065 22.176C47.7225 21.472 47.5305 20.56 47.5305 19.44V10.896H51.1065V18.552C51.1065 19.48 51.2745 20.184 51.6105 20.664C51.9465 21.144 52.4825 21.384 53.2185 21.384C54.3065 21.384 55.0505 21.016 55.4505 20.28C55.8505 19.528 56.0505 18.456 56.0505 17.064V10.896H59.6265V12.264C60.0265 12.136 60.3545 11.92 60.6105 11.616C60.8665 11.296 61.0585 10.912 61.1865 10.464C61.3145 10 61.3785 9.488 61.3785 8.928H64.9065L65.0745 9.192ZM77.7408 17.424C77.7408 18.88 77.4768 20.12 76.9488 21.144C76.4368 22.152 75.7008 22.92 74.7408 23.448C73.7968 23.976 72.6688 24.24 71.3568 24.24C70.1408 24.24 69.0528 23.976 68.0928 23.448C67.1488 22.92 66.4048 22.152 65.8608 21.144C65.3168 20.12 65.0448 18.88 65.0448 17.424C65.0448 15.248 65.6128 13.576 66.7488 12.408C67.8848 11.24 69.4448 10.656 71.4288 10.656C72.3088 10.656 73.1408 10.792 73.9248 11.064C74.7088 11.336 75.3728 11.736 75.9168 12.264C76.3488 12.136 76.6928 11.92 76.9488 11.616C77.2048 11.296 77.3888 10.912 77.5008 10.464C77.6128 10 77.6688 9.488 77.6688 8.928H81.1968L81.3648 9.192C81.2048 9.96 80.9808 10.68 80.6928 11.352C80.4208 12.008 80.0048 12.576 79.4448 13.056C78.8848 13.536 78.1168 13.904 77.1408 14.16C77.3328 14.624 77.4768 15.128 77.5728 15.672C77.6848 16.216 77.7408 16.8 77.7408 17.424ZM68.6928 17.424C68.6928 18.288 68.7808 19.016 68.9568 19.608C69.1488 20.184 69.4448 20.624 69.8448 20.928C70.2448 21.216 70.7648 21.36 71.4048 21.36C72.0448 21.36 72.5568 21.216 72.9408 20.928C73.3408 20.624 73.6288 20.184 73.8048 19.608C73.9968 19.016 74.0928 18.288 74.0928 17.424C74.0928 16.56 73.9968 15.84 73.8048 15.264C73.6288 14.688 73.3408 14.256 72.9408 13.968C72.5408 13.68 72.0208 13.536 71.3808 13.536C70.4368 13.536 69.7488 13.864 69.3168 14.52C68.9008 15.16 68.6928 16.128 68.6928 17.424ZM76.0128 5.856C75.7888 6.08 75.4928 6.352 75.1248 6.672C74.7568 6.992 74.3568 7.328 73.9248 7.68C73.5088 8.032 73.0928 8.368 72.6768 8.688C72.2768 8.992 71.9248 9.248 71.6208 9.456H69.2448V9.144C69.5008 8.84 69.7968 8.488 70.1328 8.088C70.4848 7.672 70.8288 7.248 71.1648 6.816C71.5008 6.368 71.7808 5.968 72.0048 5.616H76.0128V5.856ZM87.4727 24.3516C86.582 24.3516 85.7539 24.1875 84.9883 23.8594C84.2383 23.5312 83.582 23.0781 83.0195 22.5C82.457 21.9219 82.0195 21.2578 81.707 20.5078C81.4102 19.7578 81.2617 18.9688 81.2617 18.1406C81.2617 17.3125 81.4102 16.5234 81.707 15.7734C82.0195 15.0234 82.457 14.3594 83.0195 13.7812C83.582 13.1875 84.2383 12.7188 84.9883 12.375C85.7539 12.0312 86.582 11.8594 87.4727 11.8594C88.3633 11.8594 89.082 12 89.6289 12.2812C90.1914 12.5625 90.6367 12.8359 90.9648 13.1016V15.8438C90.5586 15.5469 90.0977 15.2969 89.582 15.0938C89.082 14.8906 88.4648 14.7891 87.7305 14.7891C87.1367 14.7891 86.582 14.9375 86.0664 15.2344C85.5664 15.5312 85.168 15.9297 84.8711 16.4297C84.5742 16.9297 84.4258 17.5 84.4258 18.1406C84.4258 18.7812 84.5664 19.3516 84.8477 19.8516C85.1289 20.3516 85.5195 20.75 86.0195 21.0469C86.5352 21.3281 87.1055 21.4688 87.7305 21.4688C88.4648 21.4688 89.082 21.3672 89.582 21.1641C90.0977 20.9609 90.5586 20.7188 90.9648 20.4375V23.1562C90.6367 23.4375 90.1914 23.7109 89.6289 23.9766C89.082 24.2266 88.3633 24.3516 87.4727 24.3516Z" fill="#6D6E76"/>
</svg>
