<svg width="79" height="40" viewBox="0 0 79 40" fill="none" xmlns="http://www.w3.org/2000/svg">
<path d="M7.00781 29V10.6797H10.8086V29H7.00781ZM1.375 13.9609V10.6797H16.4414V13.9609H1.375ZM21.293 12.7031C20.6367 12.7031 20.0716 12.4661 19.5977 11.9922C19.1237 11.5182 18.8867 10.9714 18.8867 10.3516C18.8867 9.69531 19.1237 9.13932 19.5977 8.68359C20.0716 8.22786 20.6367 8 21.293 8C21.7305 8 22.1315 8.10938 22.4961 8.32812C22.8607 8.52865 23.1523 8.8112 23.3711 9.17578C23.5898 9.52214 23.6992 9.91406 23.6992 10.3516C23.6992 10.7526 23.5898 11.1354 23.3711 11.5C23.1523 11.8646 22.8607 12.1562 22.4961 12.375C22.1315 12.5938 21.7305 12.7031 21.293 12.7031ZM19.8984 29V15.1914H23.3711V29H19.8984ZM17.6836 18.1445V15.1914H23.3711V18.1445H17.6836ZM33.1172 29.4102C32.0964 29.4102 31.1393 29.237 30.2461 28.8906C29.3529 28.526 28.5599 28.0247 27.8672 27.3867C27.1927 26.7487 26.6641 25.9922 26.2812 25.1172C25.8984 24.2422 25.707 23.2852 25.707 22.2461C25.707 20.8971 26.0078 19.6667 26.6094 18.5547C27.2109 17.4245 28.0404 16.5221 29.0977 15.8477C30.1549 15.1732 31.3581 14.8359 32.707 14.8359C34.056 14.8359 35.2135 15.1276 36.1797 15.7109C37.1641 16.2943 37.9115 17.1055 38.4219 18.1445C38.9505 19.1654 39.2148 20.3503 39.2148 21.6992V23.1758H28.9062V20.7969H35.8789C35.8424 20.1224 35.6602 19.5755 35.332 19.1562C35.0039 18.7188 34.6029 18.3997 34.1289 18.1992C33.6549 17.9805 33.1536 17.8711 32.625 17.8711C31.9141 17.8711 31.2943 18.0534 30.7656 18.418C30.2552 18.7826 29.8542 19.293 29.5625 19.9492C29.2708 20.6055 29.125 21.3711 29.125 22.2461C29.125 23.0299 29.2982 23.7227 29.6445 24.3242C29.9909 24.9258 30.474 25.3997 31.0938 25.7461C31.7318 26.0924 32.4518 26.2656 33.2539 26.2656C34.2747 26.2656 35.1862 26.0651 35.9883 25.6641C36.8086 25.263 37.4557 24.8529 37.9297 24.4336V27.6602C37.6562 27.9154 37.2734 28.1797 36.7812 28.4531C36.2891 28.7266 35.724 28.9544 35.0859 29.1367C34.4661 29.319 33.8099 29.4102 33.1172 29.4102ZM28.2773 13.3867L31.832 9.44922H33.8555L37.4102 13.3867H34.4844L32.8438 11.5273L31.2031 13.3867H28.2773ZM29.9844 8.33203L32.8555 4.44922H36.5195L32.7734 8.33203H29.9844ZM40.3867 35.5625V15.1914H43.8594V17.5156C44.2604 16.7682 44.8438 16.1393 45.6094 15.6289C46.375 15.1003 47.2682 14.8359 48.2891 14.8359C49.401 14.8359 50.4219 15.1185 51.3516 15.6836C52.2995 16.2305 53.056 17.0326 53.6211 18.0898C54.1862 19.1471 54.4688 20.4505 54.4688 22C54.4688 23.5312 54.1771 24.8529 53.5938 25.9648C53.0286 27.0586 52.2539 27.9062 51.2695 28.5078C50.3034 29.1094 49.2279 29.4102 48.043 29.4102C47.2773 29.4102 46.5117 29.2279 45.7461 28.8633C44.9987 28.4805 44.3698 28.0065 43.8594 27.4414V35.5625H40.3867ZM47.332 26.0195C48.0612 26.0195 48.681 25.8281 49.1914 25.4453C49.7201 25.0625 50.1302 24.5612 50.4219 23.9414C50.7135 23.3216 50.8594 22.6745 50.8594 22C50.8594 21.2891 50.7135 20.6602 50.4219 20.1133C50.1302 19.5664 49.7292 19.1289 49.2188 18.8008C48.7083 18.4727 48.1068 18.3086 47.4141 18.3086C46.8125 18.3086 46.2383 18.4727 45.6914 18.8008C45.1445 19.1107 44.6979 19.5573 44.3516 20.1406C44.0234 20.724 43.8594 21.4258 43.8594 22.2461V24.2422C44.3698 24.7526 44.9076 25.181 45.4727 25.5273C46.0378 25.8555 46.6576 26.0195 47.332 26.0195ZM64.2539 29V25.2266L71.8008 20.7148L64.2539 16.5586V12.7852L76.1484 20.0586V21.4531L64.2539 29Z" fill="#232536"/>
</svg>
