<svg width="79" height="79" viewBox="0 0 79 79" fill="none" xmlns="http://www.w3.org/2000/svg">
<path d="M47.1153 66.7436C48.535 66.6883 56.9971 66.1974 62.3476 59.3729C67.6429 52.6579 66.7152 43.7038 64.6409 35.9517C62.5113 28.1984 60.0544 20.5557 58.1979 12.7483C58.0895 12.202 57.3797 11.9842 56.9971 12.421C53.6678 16.0245 50.3362 19.6822 47.0058 23.2857H32.1561C28.8268 19.6822 25.4953 16.0245 22.1648 12.421C21.7834 11.9842 21.0735 12.202 20.964 12.7483C19.0534 20.5557 16.5965 28.1984 14.5222 35.9517C12.3925 43.705 11.5202 52.6579 16.8154 59.3729C22.1648 66.1974 30.628 66.6883 32.0466 66.7425" stroke="#886750" stroke-width="3.38571" stroke-miterlimit="10" stroke-linecap="round"/>
<path d="M39.1461 48.3988C39.5669 48.4068 39.9851 48.3308 40.3762 48.1752C40.7673 48.0197 41.1234 47.7877 41.4238 47.4929C41.7243 47.1981 41.9629 46.8464 42.1258 46.4583C42.2887 46.0702 42.3726 45.6535 42.3726 45.2326C42.3726 44.8117 42.2887 44.3951 42.1258 44.007C41.9629 43.6189 41.7243 43.2672 41.4238 42.9724C41.1234 42.6776 40.7673 42.4456 40.3762 42.2901C39.9851 42.1345 39.5669 42.0585 39.1461 42.0664C38.3167 42.0821 37.5266 42.4226 36.9456 43.0146C36.3645 43.6067 36.0391 44.4031 36.0391 45.2326C36.0391 46.0622 36.3645 46.8586 36.9456 47.4506C37.5266 48.0427 38.3167 48.3832 39.1461 48.3988ZM48.5358 41.1929C49.3756 41.1929 50.1811 40.8593 50.775 40.2654C51.3689 39.6715 51.7025 38.866 51.7025 38.0261C51.7025 37.1863 51.3689 36.3808 50.775 35.7869C50.1811 35.193 49.3756 34.8594 48.5358 34.8594C47.6959 34.8594 46.8904 35.193 46.2965 35.7869C45.7026 36.3808 45.369 37.1863 45.369 38.0261C45.369 38.866 45.7026 39.6715 46.2965 40.2654C46.8904 40.8593 47.6959 41.1929 48.5358 41.1929Z" fill="#886750"/>
<path d="M1.74768 40.373L22.3847 42.1201M1.69238 53.5852L22.3836 51.6193M77.2525 40.373L56.6154 42.1201M77.3067 53.5852L56.6154 51.6193M29.9733 52.6022C30.1911 52.8742 31.6661 54.8932 34.395 55.058C37.1792 55.2217 38.9815 53.311 39.1993 53.092V47.2506" stroke="#886750" stroke-width="3.38571" stroke-miterlimit="10" stroke-linecap="round"/>
<path d="M48.3717 52.5488C48.1528 52.8219 46.6789 54.8421 43.95 55.0057C41.1647 55.1693 39.3635 53.2587 39.1445 53.0397V47.1982" stroke="#886750" stroke-width="3.38571" stroke-miterlimit="10" stroke-linecap="round"/>
</svg>
