<svg width="100" height="101" viewBox="0 0 100 101" fill="none" xmlns="http://www.w3.org/2000/svg">
<path d="M50.4295 64.9142C50.4295 67.0782 50.4295 69.2422 50.4295 71.3602C50.982 72.0508 52.8697 74.1688 56.0007 74.8134C58.7172 75.3659 60.8812 74.4451 61.9862 73.9846C64.6567 72.8796 66.2222 71.13 66.8668 70.2552V42.9978C66.8668 33.9273 59.4999 26.5605 50.4295 26.5605C41.359 26.5605 33.9922 33.9273 33.9922 42.9978V70.3012C34.6368 71.13 36.2022 72.9257 38.8727 74.0307C39.9777 74.4911 42.1418 75.366 44.8583 74.8596C47.9892 74.261 49.877 72.1429 50.4295 71.4062C50.4295 69.1962 50.4295 67.0782 50.4295 64.9142Z" stroke="#886750" stroke-width="2.88462" stroke-miterlimit="10"/>
<path d="M50.43 65.6051C51.8541 65.6051 53.0085 64.4507 53.0085 63.0267C53.0085 61.6026 51.8541 60.4482 50.43 60.4482C49.006 60.4482 47.8516 61.6026 47.8516 63.0267C47.8516 64.4507 49.006 65.6051 50.43 65.6051Z" fill="#886750"/>
<path d="M56.9221 51.4693C58.3462 51.4693 59.5006 50.3149 59.5006 48.8909C59.5006 47.4669 58.3462 46.3125 56.9221 46.3125C55.4981 46.3125 54.3438 47.4669 54.3438 48.8909C54.3438 50.3149 55.4981 51.4693 56.9221 51.4693Z" fill="#886750"/>
<path d="M39.7937 30.0599C38.5966 29.5995 36.1563 29.1391 33.8542 30.0599C31.8283 30.8887 30.6772 32.4081 30.0326 33.2829C24.5075 40.9721 19.7651 49.2598 16.0356 57.9619C15.6673 58.7907 14.8385 60.7705 14.5622 63.441C14.4241 64.7763 14.286 65.9273 14.6543 67.3086C15.5291 70.946 18.614 72.8798 19.2126 73.2482C22.5276 75.3201 25.8888 74.9057 26.9017 74.7215C29.9866 74.2151 33.2096 70.9 33.9923 70.2093" stroke="#886750" stroke-width="2.88462" stroke-miterlimit="10"/>
<path d="M61.1572 30.0599C62.3543 29.5995 64.7946 29.1391 67.0967 30.0599C69.1226 30.8887 70.2737 32.4081 70.9183 33.2829C76.4434 40.9721 81.1859 49.2598 84.9153 57.9619C85.2837 58.7907 86.1125 60.7705 86.3887 63.441C86.5268 64.7763 86.665 65.9273 86.2966 67.3086C85.4218 70.946 82.3369 72.8798 81.7384 73.2482C78.4233 75.3201 75.0622 74.9057 74.0492 74.7215C70.9643 74.2151 67.7413 70.9 66.9586 70.2093" stroke="#886750" stroke-width="2.88462" stroke-miterlimit="10"/>
</svg>
