<svg width="136" height="32" viewBox="0 0 136 32" fill="none" xmlns="http://www.w3.org/2000/svg">
<path d="M39.8027 9.3468H43.1839V23.0049H39.8027V9.3468ZM44.5251 17.8479C44.5251 14.47 46.5988 12.4545 49.7997 12.4545C53.0005 12.4545 55.0743 14.47 55.0743 17.8479C55.0743 21.2259 53.0455 23.2527 49.7997 23.2527C46.5537 23.2527 44.5251 21.2822 44.5251 17.8479ZM51.6818 17.8479C51.6818 15.9901 50.9492 14.8979 49.7997 14.8979C48.65 14.8979 47.9288 16.0239 47.9288 17.8479C47.9288 19.672 48.6388 20.7755 49.7997 20.7755C50.9605 20.7755 51.6818 19.7396 51.6818 17.8592V17.8479ZM56.3478 23.6693H59.5937C59.7482 24.0121 60.0094 24.296 60.3384 24.4786C60.6673 24.6612 61.0466 24.7328 61.4195 24.6826C62.7044 24.6826 63.3807 23.9846 63.3807 22.9712V21.0795H63.313C63.0436 21.6593 62.6065 22.1451 62.058 22.4743C61.5096 22.8034 60.875 22.9608 60.2361 22.9262C57.768 22.9262 56.1337 21.0457 56.1337 17.8142C56.1337 14.5826 57.689 12.5446 60.2813 12.5446C60.9401 12.5188 61.5911 12.6948 62.1471 13.0489C62.703 13.4032 63.1374 13.9186 63.3919 14.5263V12.6459H66.7731V22.8923C66.7731 25.3583 64.5978 26.8896 61.3858 26.8896C58.3991 26.8896 56.5395 25.5496 56.3478 23.6806V23.6693ZM63.3919 17.8367C63.3919 16.1928 62.6367 15.1568 61.4421 15.1568C60.2474 15.1568 59.5149 16.1815 59.5149 17.8367C59.5149 19.4919 60.2361 20.4264 61.4421 20.4264C62.648 20.4264 63.3919 19.5144 63.3919 17.8479V17.8367ZM68.0466 17.8367C68.0466 14.4587 70.1204 12.4432 73.3212 12.4432C76.522 12.4432 78.6071 14.4587 78.6071 17.8367C78.6071 21.2146 76.5784 23.2414 73.3212 23.2414C70.0641 23.2414 68.0466 21.2822 68.0466 17.8479V17.8367ZM75.2034 17.8367C75.2034 15.9788 74.4708 14.8866 73.3212 14.8866C72.1717 14.8866 71.5067 16.0239 71.5067 17.8592C71.5067 19.6945 72.2167 20.7868 73.3663 20.7868C74.5159 20.7868 75.2034 19.7396 75.2034 17.8592V17.8367ZM79.8919 10.1912C79.8831 9.85026 79.9757 9.51426 80.1582 9.22591C80.3408 8.93755 80.6049 8.70978 80.9171 8.57156C81.2293 8.43333 81.5756 8.39083 81.912 8.44944C82.2483 8.50806 82.5598 8.66514 82.8067 8.90075C83.0537 9.13639 83.225 9.44004 83.2991 9.77311C83.3731 10.1061 83.3465 10.4536 83.2226 10.7716C83.0988 11.0895 82.8832 11.3635 82.6032 11.5589C82.3232 11.7543 81.9916 11.8622 81.6501 11.869C81.4238 11.8845 81.1967 11.8531 80.9831 11.7768C80.7695 11.7005 80.574 11.5808 80.4089 11.4254C80.2438 11.2699 80.1126 11.0821 80.0237 10.8736C79.9347 10.665 79.8898 10.4404 79.8919 10.2138V10.1912ZM79.8919 12.6684H83.2731V23.0049H79.8919V12.6684ZM95.5471 17.8367C95.5471 21.2146 94.0479 23.14 91.4784 23.14C90.8194 23.1824 90.1631 23.0214 89.5991 22.6791C89.0342 22.3368 88.5887 21.8295 88.3223 21.2259H88.2546V26.3153H84.8735V12.6459H88.2546V14.4925H88.3223C88.5763 13.879 89.0133 13.3585 89.5742 13.0019C90.1346 12.6454 90.7919 12.4699 91.4553 12.4995C94.0479 12.5446 95.5915 14.4813 95.5915 17.8592L95.5471 17.8367ZM92.1659 17.8367C92.1659 16.1928 91.41 15.1456 90.227 15.1456C89.0435 15.1456 88.2884 16.204 88.2771 17.8367C88.2659 19.4694 89.0435 20.5166 90.227 20.5166C91.41 20.5166 92.1659 19.4919 92.1659 17.8592V17.8367ZM101.351 12.432C104.157 12.432 105.859 13.7607 105.938 15.8888H102.861C102.861 15.1568 102.253 14.6952 101.317 14.6952C100.381 14.6952 99.9648 15.0555 99.9648 15.5848C99.9648 16.1139 100.337 16.2828 101.092 16.4405L103.255 16.8796C105.319 17.3187 106.197 18.152 106.197 19.7171C106.197 21.8565 104.247 23.2302 101.373 23.2302C98.4993 23.2302 96.6173 21.8565 96.4708 19.7509H99.7276C99.8298 20.5166 100.438 20.9669 101.43 20.9669C102.421 20.9669 102.873 20.6404 102.873 20.1C102.873 19.5594 102.557 19.4469 101.746 19.2779L99.796 18.8614C97.7781 18.4448 96.7186 17.3751 96.7186 15.7987C96.7417 13.7719 98.5562 12.4545 101.351 12.4545V12.432ZM117.479 22.9824H114.221V21.057H114.154C113.975 21.7034 113.58 22.2693 113.035 22.6605C112.49 23.0517 111.827 23.2448 111.156 23.2076C110.642 23.2368 110.129 23.1555 109.649 22.9692C109.17 22.7828 108.735 22.4959 108.377 22.1276C108.018 21.7593 107.742 21.3184 107.568 20.8345C107.394 20.3507 107.327 19.8352 107.369 19.323V12.6459H110.751V18.5461C110.751 19.7734 111.382 20.4264 112.43 20.4264C112.676 20.427 112.919 20.375 113.142 20.2739C113.367 20.1729 113.567 20.0253 113.729 19.8408C113.891 19.6563 114.012 19.4393 114.083 19.2044C114.155 18.9695 114.175 18.7219 114.143 18.4785V12.6459H117.525L117.479 22.9824ZM119.113 12.6459H122.382V14.6389H122.449C122.629 14.001 123.015 13.4406 123.547 13.0453C124.079 12.65 124.728 12.4423 125.391 12.4545C126.066 12.4006 126.736 12.6023 127.269 13.0195C127.801 13.4368 128.157 14.0391 128.265 14.7064H128.333C128.537 14.032 128.96 13.4446 129.536 13.0368C130.112 12.6291 130.806 12.4242 131.511 12.4545C131.97 12.4391 132.429 12.5205 132.855 12.6934C133.281 12.8663 133.666 13.1269 133.985 13.4582C134.304 13.7896 134.55 14.1842 134.706 14.6165C134.862 15.0488 134.925 15.5091 134.892 15.9676V23.0049H131.511V16.8683C131.511 15.7424 131.003 15.2244 130.057 15.2244C129.846 15.2226 129.636 15.2661 129.444 15.3519C129.251 15.4377 129.079 15.5638 128.939 15.7217C128.799 15.8797 128.695 16.0658 128.633 16.2675C128.571 16.4691 128.553 16.6817 128.58 16.8909V23.0049H125.369V16.8233C125.369 15.7874 124.862 15.2244 123.937 15.2244C123.724 15.2245 123.513 15.2698 123.318 15.3573C123.124 15.4448 122.949 15.5727 122.807 15.7322C122.666 15.8919 122.56 16.0796 122.496 16.2832C122.433 16.4868 122.413 16.7016 122.438 16.9134V23.0049H119.057L119.113 12.6459Z" fill="#282938"/>
<path d="M30.3466 9.96526C29.773 8.65507 29.0139 7.43402 28.0924 6.33965C26.7304 4.67358 25.0306 3.31457 23.1049 2.3521C21.1792 1.38963 19.0713 0.845494 16.92 0.75552C14.7686 0.665545 12.6227 1.03176 10.6232 1.83007C8.62375 2.62839 6.81619 3.8407 5.31949 5.38721C3.82278 6.93372 2.67089 8.77936 1.9396 10.8027C1.20831 12.826 0.914213 14.9811 1.07667 17.1262C1.23912 19.2711 1.85445 21.3575 2.88214 23.2478C3.90982 25.1382 5.32658 26.7897 7.03915 28.0936C8.13803 28.947 9.35226 29.6407 10.6457 30.1542C12.4592 30.8966 14.4001 31.279 16.3599 31.2801C20.4053 31.2712 24.2822 29.6602 27.1406 26.8002C29.999 23.9403 31.6059 20.0647 31.6088 16.023C31.6119 13.9383 31.182 11.8757 30.3466 9.96526ZM16.3486 3.85122C18.1086 3.85103 19.8472 4.23534 21.4429 4.9772C21.0538 5.14517 20.6447 5.26247 20.2257 5.32626C18.8468 5.52566 17.5695 6.1652 16.5843 7.14942C15.5992 8.13363 14.9591 9.40971 14.7594 10.7873C14.6718 11.5598 14.3201 12.2785 13.7637 12.8222C13.2073 13.3657 12.4802 13.7009 11.7051 13.7711C10.3263 13.9705 9.04898 14.6101 8.06384 15.5942C7.07869 16.5785 6.43854 17.8546 6.23895 19.2321C6.17137 19.9667 5.85766 20.657 5.34858 21.1913C4.47021 19.3372 4.07563 17.2911 4.20155 15.2436C4.32746 13.1961 4.96978 11.2137 6.06873 9.48082C7.16768 7.74802 8.68754 6.32109 10.4868 5.33285C12.2862 4.34461 14.3065 3.82717 16.3599 3.8287L16.3486 3.85122ZM7.02789 23.905C7.16313 23.7811 7.29838 23.6685 7.43363 23.5334C8.43631 22.5622 9.07992 21.2801 9.25945 19.8965C9.33223 19.1187 9.67986 18.3922 10.24 17.8471C10.779 17.2866 11.5045 16.9422 12.2799 16.8789C13.6588 16.6794 14.9361 16.0398 15.9212 15.0557C16.9064 14.0715 17.5465 12.7953 17.7461 11.4178C17.7949 10.6043 18.1444 9.83789 18.7266 9.26722C19.279 8.71755 20.0114 8.38566 20.7892 8.33262C22.0559 8.15851 23.2373 7.59591 24.1703 6.72247C25.2327 7.60308 26.1329 8.66243 26.8302 9.85273C26.7874 9.91051 26.7382 9.9634 26.6836 10.0103C26.1457 10.5758 25.4211 10.9278 24.6437 11.0012C23.2634 11.1971 21.9842 11.8356 20.9984 12.8204C20.0126 13.8053 19.3736 15.0833 19.1775 16.4622C19.0981 17.2374 18.7528 17.9613 18.2003 18.5112C17.6478 19.0612 16.9219 19.4034 16.1457 19.4798C14.7629 19.6777 13.4808 20.316 12.4899 21.2998C11.4991 22.2837 10.8523 23.5606 10.6457 24.9408C10.5851 25.4911 10.3959 26.0196 10.0935 26.4835C8.93711 25.7975 7.90144 24.9264 7.02789 23.905ZM16.3486 28.2512C15.2049 28.2525 14.0668 28.0933 12.9675 27.7783C13.3435 27.078 13.5879 26.3147 13.6887 25.5263C13.7678 24.7529 14.1113 24.0304 14.6616 23.4806C15.2118 22.931 15.9351 22.5877 16.7093 22.5087C18.0901 22.3116 19.37 21.673 20.3574 20.6886C21.3447 19.7042 21.9865 18.4269 22.1867 17.0478C22.2657 16.2743 22.6093 15.5518 23.1596 15.0021C23.7098 14.4523 24.433 14.109 25.2073 14.0301C26.2464 13.895 27.2368 13.5086 28.0924 12.9041C28.5676 14.7033 28.6238 16.5874 28.257 18.4117C27.8901 20.236 27.1099 21.9521 25.976 23.4284C24.8422 24.9046 23.3849 26.1019 21.7161 26.9281C20.0472 27.7543 18.2111 28.1878 16.3486 28.195V28.2512Z" fill="#282938"/>
</svg>
