<svg width="101" height="101" viewBox="0 0 101 101" fill="none" xmlns="http://www.w3.org/2000/svg">
<g clip-path="url(#clip0_3059_1096)">
<g clip-path="url(#clip1_3059_1096)">
<path d="M30.4681 29.446C23.5756 29.446 17.9678 35.0534 17.9678 41.9456C17.9678 48.8378 23.5756 54.4453 30.4681 54.4453C33.44 54.4453 36.1723 53.4026 38.3196 51.664C38.8012 52.3209 39.1845 52.9456 39.4745 53.4675C39.774 54.0066 40.3326 54.3111 40.9087 54.3111C41.178 54.3111 41.4509 54.2443 41.7032 54.1043C42.4943 53.6648 42.7799 52.6669 42.3399 51.8751C41.7838 50.8747 41.1943 50.0041 40.6042 49.2501C42.0902 47.1938 42.9678 44.6702 42.9678 41.945C42.9678 35.0528 37.3606 29.446 30.4681 29.446ZM38.3007 46.8073C36.8462 45.5377 35.7304 45.0176 35.6459 44.9792L34.2892 47.9635L34.2784 47.9584C34.286 47.9616 35.0173 48.3121 36.0184 49.1638C36.0475 49.1884 36.0752 49.2142 36.1042 49.2388C34.5445 50.4467 32.5889 51.1666 30.4681 51.1666C25.383 51.1666 21.246 47.0298 21.246 41.945C21.246 36.8601 25.383 32.7234 30.4681 32.7234C35.5532 32.7234 39.6901 36.8601 39.6901 41.945C39.6901 43.7284 39.1808 45.3952 38.3007 46.8073Z" fill="#886750"/>
<path d="M60.2799 67.7537C61.1088 68.1418 62.088 67.7674 62.4663 66.9161L64.9013 61.4417H74.6613C74.7337 61.4417 74.8054 61.4365 74.8752 61.4274L77.3166 66.9168C77.594 67.5394 78.1924 67.9074 78.8188 67.9074C79.0479 67.9074 79.2808 67.8579 79.5029 67.7543C80.3318 67.3662 80.6974 66.3613 80.3191 65.5107L72.2371 47.3394C71.8124 46.3853 70.9138 45.792 69.8914 45.792C68.8691 45.792 67.9704 46.3846 67.5458 47.3394L59.4638 65.5107C59.0855 66.3613 59.4505 67.3656 60.2799 67.7537ZM69.8908 50.2212L73.375 58.0545H66.4074L69.8908 50.2212Z" fill="#886750"/>
<path d="M95.3739 44.8629C92.5658 38.5086 87.5675 33.4736 81.3001 30.6849C76.1554 28.3957 70.533 27.7045 65.0425 28.6864L65.6205 31.9146C70.4623 31.0494 75.4235 31.6599 79.9662 33.6811C85.4883 36.138 89.8947 40.5796 92.3727 46.1879C94.8501 51.7948 95.1707 58.0438 93.2739 63.7845C92.0112 67.6068 89.9174 70.953 87.0507 73.731L86.443 74.3193L87.8773 83.707C85.5551 82.3808 82.3919 80.5601 80.0974 79.1835L79.4134 78.7729L78.6682 79.0566C72.64 81.3535 66.0509 81.2021 60.1154 78.631C53.9416 75.9564 49.1281 70.7921 46.8179 64.3956C47.8932 63.6098 48.9192 62.7439 49.8866 61.8006C54.8609 56.949 57.8324 50.5077 58.254 43.664C58.4363 40.6982 58.1548 37.7644 57.4304 34.9492C59.9659 33.454 62.7166 32.4336 65.6205 31.9146L65.0425 28.6864C61.9934 29.2313 59.0932 30.263 56.3987 31.7595C55.8573 30.3778 55.2042 29.0352 54.44 27.7437C51.8661 23.3972 48.1601 19.8272 43.7215 17.4188C39.1245 14.9253 33.9066 13.7838 28.6299 14.1187C21.8603 14.5482 15.4737 17.4749 10.647 22.3605C5.82157 27.2436 2.97123 33.6628 2.62101 40.4339C2.25691 47.4819 4.5185 54.2834 9.00255 59.6772C8.33871 63.3393 7.53227 68.3232 7.20035 70.3962C7.07667 71.1706 7.39849 71.9305 8.0415 72.3795C8.39298 72.6248 8.79873 72.749 9.20638 72.749C9.54713 72.749 9.88914 72.6626 10.2021 72.488L19.2845 67.4239C23.1507 69.119 27.2695 69.8954 31.5408 69.7302C35.9391 69.5612 40.1959 68.3421 43.9947 66.2106C46.7037 73.1306 52.0333 78.7048 58.8098 81.6397C62.372 83.1829 66.1411 83.9567 69.9146 83.9561C73.0047 83.9561 76.098 83.437 79.0809 82.3965C82.2801 84.2986 86.6708 86.7977 88.4983 87.8333C88.8131 88.0117 89.1583 88.1 89.5016 88.1C89.9029 88.1 90.303 87.9789 90.6507 87.7399C91.2988 87.294 91.6275 86.5335 91.5082 85.7546L89.9383 75.4797C92.8801 72.4526 95.0476 68.8681 96.3879 64.8112C98.5397 58.298 98.1792 51.2134 95.3726 44.8616L95.3739 44.8629ZM31.4152 66.4534C27.3906 66.6079 23.5212 65.8189 19.9148 64.1067L19.1507 63.7441L10.8527 68.3712C11.2831 65.7332 11.8832 62.1354 12.371 59.505L12.5168 58.7212L11.9898 58.1227C7.72852 53.2819 5.56537 47.0607 5.89855 40.6036C6.20712 34.6359 8.72238 28.9752 12.9824 24.6642C17.2424 20.3525 22.8737 17.7694 28.8388 17.3911C29.3701 17.3576 29.9008 17.3406 30.4302 17.3406C34.5414 17.3406 38.5654 18.3528 42.1566 20.3009C46.0739 22.4261 49.3451 25.5774 51.6169 29.4136C54.122 33.6445 55.2849 38.5023 54.9795 43.4629C54.6085 49.4924 51.986 55.1719 47.596 59.4539C43.2066 63.7347 37.4611 66.2207 31.4165 66.4534H31.4152Z" fill="#886750"/>
</g>
</g>
<defs>
<clipPath id="clip0_3059_1096">
<rect width="100" height="100" fill="white" transform="translate(0.660156 0.599609)"/>
</clipPath>
<clipPath id="clip1_3059_1096">
<rect width="100" height="100" fill="white" transform="translate(0.660156 0.599609)"/>
</clipPath>
</defs>
</svg>
