<svg width="19" height="19" viewBox="0 0 19 19" fill="none" xmlns="http://www.w3.org/2000/svg">
<path d="M7.60962 0.334963C8.86959 0.314438 10.1138 0.617059 11.2236 1.21396C12.427 1.87582 13.4237 2.8577 14.1036 4.05096C14.7844 5.24562 15.1225 6.60491 15.0807 7.97929C15.0389 9.35368 14.6188 10.6899 13.8666 11.841C13.1158 12.9904 12.0616 13.9096 10.8206 14.497C9.67672 15.0252 8.41654 15.2516 7.16031 15.1544C5.90407 15.0573 4.69368 14.6398 3.64462 13.942C2.59393 13.2435 1.73894 12.2883 1.16062 11.167C0.5816 10.0441 0.297974 8.79228 0.336463 7.52949C0.374952 6.2667 0.734288 5.03449 1.38062 3.94896C2.02557 2.86483 2.93669 1.96335 4.02762 1.32996C5.1171 0.697944 6.35026 0.355401 7.60962 0.334963ZM5.21362 11.538C5.95628 12.0422 6.832 12.3143 7.72962 12.32C8.32792 12.3206 8.92049 12.2034 9.4735 11.975C10.0265 11.7466 10.5291 11.4116 10.9526 10.989C11.8098 10.1335 12.294 8.97392 12.2996 7.76296C12.2996 6.86296 12.0336 5.98296 11.5356 5.23396C11.0386 4.48604 10.3312 3.90213 9.50262 3.55596C8.67442 3.20982 7.76202 3.1177 6.88135 3.2913C6.00067 3.46491 5.19149 3.89641 4.55662 4.53096C3.91953 5.16619 3.48448 5.97562 3.3062 6.85745C3.12791 7.73927 3.21434 8.65413 3.55462 9.48696C3.89296 10.3197 4.47064 11.0335 5.21462 11.538H5.21362ZM15.2526 13.256L18.2396 16.218C18.3745 16.3499 18.4817 16.5073 18.5551 16.6811C18.6285 16.8549 18.6666 17.0416 18.6672 17.2302C18.6677 17.4189 18.6307 17.6057 18.5584 17.7799C18.486 17.9542 18.3797 18.1122 18.2456 18.245C18.1123 18.3785 17.9539 18.4844 17.7795 18.5567C17.6052 18.629 17.4183 18.6662 17.2296 18.6662C17.0409 18.6662 16.854 18.629 16.6797 18.5567C16.5054 18.4844 16.347 18.3785 16.2136 18.245L13.2436 15.3C14.0126 14.724 14.69 14.0348 15.2526 13.256Z" fill="white"/>
</svg>
