<svg width="79" height="79" viewBox="0 0 79 79" fill="none" xmlns="http://www.w3.org/2000/svg">
<g clip-path="url(#clip0_3059_980)">
<path d="M77.7785 20.327L40.0877 1.72882C39.9055 1.63994 39.7053 1.59375 39.5026 1.59375C39.2998 1.59375 39.0997 1.63994 38.9174 1.72882L1.21096 20.327C0.900816 20.4733 0.663816 20.7405 0.551656 21.0663C0.440471 21.392 0.463878 21.75 0.617002 22.0591C0.776243 22.3679 1.05028 22.6019 1.3802 22.7108C1.71012 22.8196 2.06959 22.7947 2.38134 22.6414L39.4948 4.33484L76.6082 22.6414C76.7935 22.7292 76.9964 22.774 77.2021 22.7711C77.6927 22.7731 78.1443 22.498 78.3725 22.0591C78.5256 21.7509 78.549 21.393 78.4379 21.0663C78.3829 20.9053 78.2962 20.7569 78.183 20.63C78.0697 20.503 77.9322 20.4 77.7785 20.327ZM65.8349 60.695C64.8263 60.2331 63.6791 60.1752 62.6291 60.5331L48.7456 63.7701C48.8657 62.5813 48.5466 61.3896 47.8483 60.42C47.0809 59.3682 45.9276 58.6638 44.6415 58.4615L32.4082 55.7902H32.2482C30.8807 55.4107 29.447 55.3329 28.0465 55.562C26.6459 55.7912 25.3118 56.322 24.1366 57.1176C22.1645 58.4615 12.4651 64.8059 12.3529 64.8713C12.2099 64.9644 12.0869 65.0849 11.9909 65.2259C11.8948 65.3668 11.8277 65.5255 11.7934 65.6926C11.7591 65.8596 11.7584 66.0319 11.7911 66.1993C11.8239 66.3667 11.8895 66.5259 11.9842 66.6678C12.1774 66.9544 12.4752 67.1539 12.8138 67.2236C13.1524 67.2932 13.5047 67.2274 13.7954 67.0404C14.1962 66.7809 23.6392 60.5653 25.6112 59.2545C26.5172 58.641 27.5511 58.242 28.6343 58.0877C29.7176 57.9334 30.8217 58.0279 31.863 58.364H31.9761L44.1285 61.0188C44.7673 61.0968 45.3466 61.4362 45.7309 61.9571C46.0996 62.4584 46.2497 63.0894 46.1483 63.7058C46.0456 64.3169 45.7082 64.8637 45.208 65.2295C44.7079 65.5954 44.0846 65.7514 43.4711 65.6642L35.4541 64.0452C35.2845 64.002 35.1081 63.9935 34.9351 64.0199C34.7622 64.0464 34.5964 64.1074 34.4475 64.1993C34.1452 64.3846 33.9306 64.685 33.8516 65.0332C33.8156 65.2005 33.8132 65.3734 33.8446 65.5417C33.876 65.71 33.9405 65.8704 34.0344 66.0135C34.1284 66.1566 34.2498 66.2796 34.3917 66.3754C34.5337 66.4711 34.6932 66.5377 34.8611 66.5712L42.8781 68.1893C43.1444 68.2107 43.4126 68.2107 43.6788 68.1893C44.3422 68.1856 44.9983 68.0507 45.6093 67.7923C46.2203 67.5338 46.7741 67.1569 47.2387 66.6834L63.2699 62.9285H63.4142C63.8309 62.76 64.2967 62.76 64.7133 62.9285C65.1268 63.1079 65.4467 63.4551 65.595 63.8843C65.7979 64.3095 65.8057 64.803 65.6174 65.2351C65.5253 65.4481 65.3881 65.6387 65.2154 65.7937C65.0427 65.9488 64.8385 66.0646 64.6168 66.1333L47.4143 72.3168C46.5677 72.6718 45.6226 72.7069 44.7536 72.4143L30.3249 69.3713C30.02 69.307 29.7021 69.3526 29.4276 69.5001L19.4707 74.7609C19.1683 74.9189 18.9421 75.193 18.8426 75.5216C18.7431 75.8513 18.7782 76.2063 18.9421 76.5087C19.2932 77.1436 20.0832 77.3806 20.721 77.0431L30.3405 71.993L44.2874 74.9384C45.6622 75.3423 47.1339 75.2625 48.4569 74.7121L65.5462 68.5609C66.3448 68.2776 67.0396 67.7605 67.5403 67.0769C68.0409 66.3933 68.3242 65.5747 68.3532 64.7279C68.3862 63.8807 68.1637 63.0431 67.7146 62.3239C67.2656 61.6048 66.6106 61.0372 65.8349 60.695Z" fill="#886750"/>
<path d="M22.9343 32.3526C22.7412 35.0201 24.7191 37.3423 27.3592 37.549C29.9731 37.3091 31.9139 34.9967 31.7189 32.3526C31.913 29.6871 29.9341 27.3639 27.2949 27.1571C24.681 27.398 22.7402 29.7085 22.9343 32.3526ZM29.5556 32.3526C29.6347 33.0386 29.4527 33.7292 29.0457 34.2871C28.6387 34.845 28.0366 35.2292 27.3592 35.3634C25.9343 35.1234 24.9424 33.8029 25.0985 32.3526C25.0202 31.6645 25.2045 30.9722 25.6146 30.4142C26.0247 29.8562 26.6304 29.4735 27.3105 29.3428C27.9879 29.477 28.5899 29.8612 28.9969 30.4191C29.4039 30.9769 29.586 31.6676 29.5069 32.3536L29.5556 32.3526ZM56.1045 32.3526C56.2976 35.0201 54.3197 37.3423 51.6795 37.549C49.0462 37.3345 47.0761 35.0132 47.2711 32.3526C47.0761 29.6929 49.0462 27.3727 51.6795 27.1571C54.3197 27.3639 56.2976 29.6871 56.1035 32.3536L56.1045 32.3526ZM53.8915 32.3526C53.9746 31.6618 53.7924 30.9653 53.3818 30.4036C52.9713 29.8419 52.3629 29.4568 51.6795 29.3262C50.2731 29.5964 49.3144 30.9189 49.4831 32.3536C49.4044 33.0417 49.5885 33.7343 49.9987 34.2924C50.4089 34.8505 51.0149 35.2331 51.6951 35.3634C52.3725 35.2292 52.9746 34.845 53.3816 34.2871C53.7886 33.7292 53.9706 33.0386 53.8915 32.3526ZM44.4652 18.7246C41.825 18.9314 39.8471 21.2536 40.0402 23.9201C39.8471 26.5866 41.825 28.9088 44.4652 29.1155C47.1053 28.9088 49.0833 26.5866 48.8902 23.9201C49.0833 21.2536 47.1053 18.9314 44.4652 18.7246ZM44.4652 26.9465C43.788 26.8123 43.1861 26.4282 42.7791 25.8706C42.3722 25.3129 42.19 24.6225 42.2688 23.9367C42.1897 23.2507 42.3718 22.56 42.7788 22.0021C43.1857 21.4443 43.7878 21.06 44.4652 20.9259C45.1426 21.06 45.7446 21.4443 46.1516 22.0021C46.5586 22.56 46.7407 23.2507 46.6616 23.9367C46.7407 24.6227 46.5586 25.3133 46.1516 25.8712C45.7446 26.429 45.1426 26.8123 44.4652 26.9465ZM30.0999 23.9201C29.9068 21.2536 31.8847 18.9314 34.5248 18.7246C37.1718 18.9226 39.1595 21.2477 38.9664 23.9201C39.1595 26.5924 37.1718 28.9176 34.5248 29.1155C31.8847 28.9088 29.9068 26.5866 30.0999 23.9201ZM32.3284 23.9367C32.2494 24.6227 32.4314 25.3133 32.8384 25.8712C33.2454 26.429 33.8474 26.8133 34.5248 26.9474C35.2022 26.8133 35.8043 26.429 36.2113 25.8712C36.6183 25.3133 36.8003 24.6227 36.7212 23.9367C36.8003 23.2507 36.6183 22.56 36.2113 22.0021C35.8043 21.4443 35.2022 21.06 34.5248 20.9259C33.8474 21.06 33.2454 21.4443 32.8384 22.0021C32.4314 22.56 32.2494 23.2507 32.3284 23.9367ZM33.7553 33.2275L29.5225 40.4457C29.2256 40.9583 28.984 41.501 28.8017 42.0647C28.52 42.7811 28.3787 43.545 28.3853 44.3148C28.4594 47.5596 31.0235 50.1842 34.2371 50.3032H34.5414C35.3489 50.308 36.1495 50.1542 36.8978 49.8506L37.6029 49.6234C38.2075 49.3869 38.8466 49.2502 39.495 49.2186C40.1426 49.2498 40.7824 49.3864 41.3871 49.6234L42.1722 49.8184C42.9797 50.0646 43.8143 50.2113 44.6573 50.2554H44.7373C47.9587 50.1276 50.5238 47.4874 50.5891 44.2338C50.5688 43.4944 50.4336 42.7626 50.1883 42.0647C49.9962 41.5022 49.7492 40.9599 49.451 40.4457L45.2181 33.2109C44.6968 32.1063 43.89 31.1609 42.8812 30.4724C41.8724 29.7838 40.698 29.377 39.4794 29.294C38.2617 29.3812 37.0892 29.7917 36.083 30.4831C35.0768 31.1745 34.2733 32.1219 33.7553 33.2275ZM43.3748 34.3276L47.6076 41.5634C47.832 41.9438 48.0192 42.3437 48.1684 42.7611C48.3323 43.2351 48.424 43.7315 48.4415 44.2338C48.3928 46.2888 46.7864 47.9595 44.7539 48.0697C44.1065 48.0324 43.4658 47.9185 42.8452 47.7303L42.1566 47.5196C41.3106 47.1681 40.4101 46.9656 39.495 46.9208C38.6117 46.9484 37.7392 47.1231 36.9134 47.4377L36.2248 47.6493H36.0961C35.5889 47.8629 35.0427 47.9673 34.4927 47.9566H34.3483C32.2963 47.8805 30.6548 46.2088 30.5973 44.1363C30.6299 43.6601 30.7495 43.194 30.9503 42.7611C31.0966 42.3437 31.2839 41.9418 31.5111 41.5634L35.744 34.3276C36.0828 33.5688 36.6123 32.9107 37.2809 32.4173C37.9495 31.9239 38.7345 31.6119 39.5594 31.5119C40.3711 31.6209 41.1416 31.9351 41.798 32.4249C42.4543 32.9147 42.9749 33.5639 43.3104 34.311L43.3748 34.3276Z" fill="#886750"/>
</g>
<defs>
<clipPath id="clip0_3059_980">
<rect width="79" height="79" fill="white" transform="translate(-0.00488281)"/>
</clipPath>
</defs>
</svg>
