<svg width="81" height="80" viewBox="0 0 81 80" fill="none" xmlns="http://www.w3.org/2000/svg">
<g clip-path="url(#clip0_3068_703)">
<path d="M0.77002 40C0.77002 17.9086 18.6786 0 40.77 0C62.8614 0 80.77 17.9086 80.77 40C80.77 62.0914 62.8614 80 40.77 80C18.6786 80 0.77002 62.0914 0.77002 40Z" fill="#FCEED5"/>
<mask id="mask0_3068_703" style="mask-type:luminance" maskUnits="userSpaceOnUse" x="20" y="20" width="41" height="40">
<path d="M60.77 20H20.77V60H60.77V20Z" fill="white"/>
</mask>
<g mask="url(#mask0_3068_703)">
<path d="M59.7866 54.3161L52.7699 47.2828C55.2071 43.6727 56.2119 39.2842 55.5882 34.9734C54.9645 30.6626 52.7572 26.7388 49.3968 23.9675C46.0364 21.1963 41.7641 19.7764 37.4134 19.9849C33.0627 20.1935 28.9458 22.0154 25.8659 25.0954C22.7859 28.1753 20.964 32.2922 20.7554 36.6429C20.5469 40.9936 21.9668 45.2659 24.738 48.6263C27.5093 51.9867 31.4331 54.194 35.7439 54.8177C40.0547 55.4414 44.4432 54.4366 48.0533 51.9994L55.0866 59.0161C55.7243 59.5622 56.5445 59.8475 57.3834 59.8151C58.2223 59.7827 59.0181 59.4349 59.6118 58.8413C60.2054 58.2476 60.5532 57.4518 60.5856 56.6129C60.618 55.774 60.3327 54.9538 59.7866 54.3161ZM38.2699 23.3327C41.0718 23.3327 43.8108 24.1636 46.1405 25.7203C48.4702 27.2769 50.286 29.4894 51.3582 32.0781C52.4305 34.6667 52.7111 37.5151 52.1644 40.2632C51.6178 43.0113 50.2685 45.5355 48.2873 47.5168C46.306 49.498 43.7818 50.8473 41.0337 51.3939C38.2856 51.9405 35.4373 51.66 32.8486 50.5877C30.2599 49.5155 28.0474 47.6997 26.4908 45.37C24.9341 43.0403 24.1032 40.3013 24.1032 37.4994C24.1077 33.7435 25.6016 30.1427 28.2574 27.4869C30.9132 24.8311 34.514 23.3372 38.2699 23.3327Z" fill="#C19372"/>
<path d="M41.3365 46.4829H35.1532C34.6536 46.4785 34.1647 46.338 33.7389 46.0767C33.3131 45.8154 32.9666 45.443 32.7365 44.9995C32.5072 44.5417 32.4062 44.0303 32.4444 43.5196C32.4825 43.009 32.6584 42.5182 32.9532 42.0995L36.0532 37.8995C36.3054 37.5551 36.6354 37.275 37.0161 37.0819C37.3969 36.8888 37.8179 36.7881 38.2448 36.7881C38.6718 36.7881 39.0927 36.8888 39.4735 37.0819C39.8543 37.275 40.1842 37.5551 40.4365 37.8995L43.5198 42.1329C43.8191 42.5419 44.0003 43.0253 44.0436 43.5303C44.0869 44.0352 43.9907 44.5424 43.7654 44.9964C43.5401 45.4504 43.1944 45.8338 42.7661 46.1048C42.3378 46.3757 41.8432 46.5238 41.3365 46.5329V46.4829Z" fill="#C19372"/>
<path d="M31.8864 38.0161C31.3286 38.0161 30.7834 37.8505 30.3198 37.5402C29.8563 37.23 29.4953 36.7891 29.2826 36.2734C29.0699 35.7578 29.0151 35.1906 29.1252 34.6438C29.2352 34.0969 29.5051 33.5951 29.9007 33.2018C30.2963 32.8086 30.7997 32.5417 31.3472 32.4349C31.8947 32.3281 32.4615 32.3862 32.9759 32.602C33.4903 32.8177 33.929 33.1813 34.2365 33.6467C34.544 34.1121 34.7064 34.6583 34.7031 35.2161C34.6987 35.9602 34.4 36.6724 33.8722 37.197C33.3445 37.7216 32.6306 38.0161 31.8864 38.0161Z" fill="#C19372"/>
<path d="M38.2199 33.7993C37.6621 33.7993 37.1169 33.6337 36.6533 33.3235C36.1898 33.0132 35.8288 32.5723 35.6161 32.0567C35.4034 31.541 35.3486 30.9738 35.4587 30.427C35.5687 29.8802 35.8386 29.3783 36.2342 28.9851C36.6298 28.5918 37.1332 28.3249 37.6807 28.2181C38.2282 28.1113 38.795 28.1695 39.3094 28.3852C39.8238 28.601 40.2625 28.9646 40.57 29.43C40.8775 29.8954 41.0399 30.4416 41.0366 30.9993C41.0322 31.7435 40.7335 32.4556 40.2057 32.9803C39.678 33.5049 38.9641 33.7994 38.2199 33.7993Z" fill="#C19372"/>
<path d="M44.6032 38.0161C44.0461 38.0128 43.5025 37.8444 43.0412 37.5321C42.5798 37.2199 42.2214 36.7778 42.0113 36.2619C41.8011 35.746 41.7487 35.1793 41.8606 34.6336C41.9725 34.0879 42.2438 33.5876 42.64 33.196C43.0362 32.8045 43.5397 32.5392 44.0867 32.4337C44.6337 32.3283 45.1997 32.3874 45.7131 32.6036C46.2265 32.8198 46.6643 33.1835 46.971 33.6485C47.2778 34.1135 47.4398 34.659 47.4365 35.2161C47.4365 35.5866 47.363 35.9535 47.2202 36.2954C47.0774 36.6373 46.8682 36.9474 46.6046 37.2079C46.3411 37.4683 46.0285 37.6739 45.6849 37.8126C45.3413 37.9513 44.9737 38.0205 44.6032 38.0161Z" fill="#C19372"/>
</g>
</g>
<defs>
<clipPath id="clip0_3068_703">
<rect width="80" height="80" fill="white" transform="translate(0.77002)"/>
</clipPath>
</defs>
</svg>
