<svg width="81" height="80" viewBox="0 0 81 80" fill="none" xmlns="http://www.w3.org/2000/svg">
<g clip-path="url(#clip0_3068_722)">
<path d="M0.77002 40C0.77002 17.9086 18.6786 0 40.77 0C62.8614 0 80.77 17.9086 80.77 40C80.77 62.0914 62.8614 80 40.77 80C18.6786 80 0.77002 62.0914 0.77002 40Z" fill="#FCEED5"/>
<mask id="mask0_3068_722" style="mask-type:luminance" maskUnits="userSpaceOnUse" x="20" y="20" width="41" height="40">
<path d="M60.77 20H20.77V60H60.77V20Z" fill="white"/>
</mask>
<g mask="url(#mask0_3068_722)">
<path d="M49.9368 38.333C47.7942 38.333 45.6997 38.9684 43.9182 40.1587C42.1366 41.3491 40.7481 43.0411 39.9281 45.0206C39.1082 47.0001 38.8937 49.1783 39.3117 51.2798C39.7297 53.3813 40.7614 55.3116 42.2765 56.8267C43.7916 58.3417 45.7219 59.3735 47.8234 59.7915C49.9248 60.2095 52.103 59.995 54.0826 59.175C56.0621 58.3551 57.754 56.9665 58.9444 55.185C60.1348 53.4035 60.7702 51.309 60.7702 49.1663C60.7658 46.2945 59.623 43.5416 57.5923 41.5109C55.5616 39.4802 52.8087 38.3374 49.9368 38.333ZM54.9368 45.9663L50.1035 52.4163C49.8885 52.7026 49.6145 52.9394 49.3001 53.1106C48.9857 53.2819 48.6381 53.3835 48.281 53.4088C47.9239 53.4341 47.5655 53.3824 47.23 53.2572C46.8946 53.1319 46.59 52.9361 46.3368 52.683L43.8368 50.183C43.714 50.0686 43.6155 49.9306 43.5472 49.7772C43.4789 49.6239 43.4421 49.4584 43.4392 49.2905C43.4362 49.1227 43.4671 48.956 43.53 48.8003C43.5928 48.6447 43.6864 48.5033 43.8051 48.3846C43.9238 48.2659 44.0652 48.1723 44.2208 48.1095C44.3765 48.0466 44.5432 48.0157 44.711 48.0187C44.8789 48.0216 45.0444 48.0584 45.1977 48.1267C45.3511 48.195 45.4891 48.2935 45.6035 48.4163L47.7702 50.583C47.8125 50.6226 47.8623 50.6534 47.9167 50.6734C47.9711 50.6935 48.0289 50.7024 48.0868 50.6997C48.1458 50.6948 48.2031 50.6774 48.2548 50.6487C48.3065 50.6199 48.3515 50.5805 48.3868 50.533L52.9368 44.4663C53.0353 44.335 53.1587 44.2244 53.3 44.1407C53.4412 44.0571 53.5976 44.0021 53.7601 43.9789C53.9226 43.9557 54.088 43.9647 54.2471 44.0054C54.4061 44.0462 54.5555 44.1178 54.6868 44.2163C54.8182 44.3148 54.9288 44.4382 55.0124 44.5795C55.0961 44.7207 55.1511 44.8771 55.1743 45.0396C55.1975 45.2021 55.1885 45.3675 55.1477 45.5266C55.107 45.6856 55.0353 45.835 54.9368 45.9663Z" fill="#C19372"/>
<path d="M29.1035 37.083H39.9368C40.2684 37.083 40.5863 36.9513 40.8207 36.7169C41.0551 36.4825 41.1868 36.1645 41.1868 35.833C41.1868 35.5015 41.0551 35.1835 40.8207 34.9491C40.5863 34.7147 40.2684 34.583 39.9368 34.583H29.1035C28.772 34.583 28.454 34.7147 28.2196 34.9491C27.9852 35.1835 27.8535 35.5015 27.8535 35.833C27.8535 36.1645 27.9852 36.4825 28.2196 36.7169C28.454 36.9513 28.772 37.083 29.1035 37.083Z" fill="#C19372"/>
<path d="M29.1035 42.916H34.1035C34.435 42.916 34.753 42.7844 34.9874 42.5499C35.2218 42.3155 35.3535 41.9976 35.3535 41.666C35.3535 41.3345 35.2218 41.0166 34.9874 40.7822C34.753 40.5477 34.435 40.416 34.1035 40.416H29.1035C28.772 40.416 28.454 40.5477 28.2196 40.7822C27.9852 41.0166 27.8535 41.3345 27.8535 41.666C27.8535 41.9976 27.9852 42.3155 28.2196 42.5499C28.454 42.7844 28.772 42.916 29.1035 42.916Z" fill="#C19372"/>
<path d="M29.1035 48.75H33.6868C34.0183 48.75 34.3363 48.6183 34.5707 48.3839C34.8051 48.1495 34.9368 47.8315 34.9368 47.5C34.9368 47.1685 34.8051 46.8505 34.5707 46.6161C34.3363 46.3817 34.0183 46.25 33.6868 46.25H29.1035C28.772 46.25 28.454 46.3817 28.2196 46.6161C27.9852 46.8505 27.8535 47.1685 27.8535 47.5C27.8535 47.8315 27.9852 48.1495 28.2196 48.3839C28.454 48.6183 28.772 48.75 29.1035 48.75Z" fill="#C19372"/>
<path d="M29.5202 30.4166H43.6868C43.7973 30.4166 43.9033 30.3727 43.9815 30.2945C44.0596 30.2164 44.1035 30.1104 44.1035 29.9999V24.9999C44.1035 24.8894 44.0596 24.7834 43.9815 24.7053C43.9033 24.6271 43.7973 24.5832 43.6868 24.5832H40.7702V24.1666C40.7679 23.5232 40.6172 22.889 40.3299 22.3133C40.0426 21.7376 39.6264 21.236 39.1136 20.8474C38.6008 20.4588 38.0053 20.1937 37.3734 20.0727C36.7415 19.9517 36.0902 19.9781 35.4702 20.1499C34.5794 20.4187 33.8009 20.9713 33.2533 21.7235C32.7057 22.4757 32.419 23.3863 32.4368 24.3166V24.5832H29.5202C29.4097 24.5832 29.3037 24.6271 29.2255 24.7053C29.1474 24.7834 29.1035 24.8894 29.1035 24.9999V29.9999C29.1035 30.1104 29.1474 30.2164 29.2255 30.2945C29.3037 30.3727 29.4097 30.4166 29.5202 30.4166ZM36.6035 22.4999C36.8507 22.4999 37.0924 22.5732 37.298 22.7106C37.5035 22.8479 37.6637 23.0431 37.7583 23.2715C37.853 23.4999 37.8777 23.7513 37.8295 23.9938C37.7812 24.2362 37.6622 24.459 37.4874 24.6338C37.3126 24.8086 37.0898 24.9276 36.8474 24.9759C36.6049 25.0241 36.3536 24.9993 36.1251 24.9047C35.8967 24.8101 35.7015 24.6499 35.5642 24.4444C35.4268 24.2388 35.3535 23.9971 35.3535 23.7499C35.3578 23.4197 35.4909 23.1043 35.7244 22.8708C35.9579 22.6373 36.2733 22.5042 36.6035 22.4999Z" fill="#C19372"/>
<path d="M39.1033 56.8497C39.0674 56.7938 39.0181 56.7478 38.9599 56.7158C38.9017 56.6838 38.8364 56.6668 38.77 56.6663H24.9367C24.7157 56.6663 24.5037 56.5785 24.3474 56.4223C24.1911 56.266 24.1033 56.054 24.1033 55.833V28.7497C24.1033 28.5286 24.1911 28.3167 24.3474 28.1604C24.5037 28.0041 24.7157 27.9163 24.9367 27.9163H26.1867C26.2972 27.9163 26.4032 27.8724 26.4813 27.7943C26.5594 27.7162 26.6033 27.6102 26.6033 27.4997V24.9997C26.6033 24.8892 26.5594 24.7832 26.4813 24.705C26.4032 24.6269 26.2972 24.583 26.1867 24.583H24.1033C23.2193 24.583 22.3714 24.9342 21.7463 25.5593C21.1212 26.1844 20.77 27.0323 20.77 27.9163V56.6663C20.77 57.5504 21.1212 58.3982 21.7463 59.0234C22.3714 59.6485 23.2193 59.9997 24.1033 59.9997H40.97C41.0551 59.9976 41.1378 59.9714 41.2086 59.9242C41.2794 59.877 41.3354 59.8107 41.37 59.733C41.4012 59.6527 41.4067 59.5647 41.3858 59.4811C41.3649 59.3976 41.3186 59.3225 41.2533 59.2663C40.4446 58.5476 39.723 57.7365 39.1033 56.8497Z" fill="#C19372"/>
<path d="M51.9535 35.983C52.0115 35.9989 52.0727 35.9996 52.1311 35.985C52.1895 35.9705 52.2431 35.941 52.2868 35.8997C52.3333 35.8609 52.3708 35.8126 52.3967 35.7579C52.4226 35.7032 52.4363 35.6435 52.4368 35.583V27.9163C52.4368 27.0323 52.0856 26.1844 51.4605 25.5593C50.8354 24.9342 49.9876 24.583 49.1035 24.583H47.0202C46.9097 24.583 46.8037 24.6269 46.7255 24.705C46.6474 24.7832 46.6035 24.8892 46.6035 24.9997V27.4997C46.6035 27.6102 46.6474 27.7162 46.7255 27.7943C46.8037 27.8724 46.9097 27.9163 47.0202 27.9163H48.2702C48.4912 27.9163 48.7031 28.0041 48.8594 28.1604C49.0157 28.3167 49.1035 28.5286 49.1035 28.7497V35.4163C49.1042 35.4728 49.1165 35.5284 49.1394 35.58C49.1623 35.6316 49.1954 35.678 49.2368 35.7163C49.3181 35.7923 49.4256 35.8341 49.5368 35.833H49.9368C50.6119 35.8319 51.286 35.882 51.9535 35.983Z" fill="#C19372"/>
</g>
</g>
<defs>
<clipPath id="clip0_3068_722">
<rect width="80" height="80" fill="white" transform="translate(0.77002)"/>
</clipPath>
</defs>
</svg>
