<svg width="81" height="80" viewBox="0 0 81 80" fill="none" xmlns="http://www.w3.org/2000/svg">
<g clip-path="url(#clip0_3068_716)">
<path d="M0.77002 40C0.77002 17.9086 18.6786 0 40.77 0C62.8614 0 80.77 17.9086 80.77 40C80.77 62.0914 62.8614 80 40.77 80C18.6786 80 0.77002 62.0914 0.77002 40Z" fill="#FCEED5"/>
<path fill-rule="evenodd" clip-rule="evenodd" d="M30.2677 34.6667C28.3237 34.6636 26.4603 33.89 25.0857 32.5154C23.7111 31.1408 22.9375 29.2773 22.9344 27.3333C22.9344 23.2933 26.2261 20 30.2677 20C34.3077 20 37.6011 23.2933 37.6011 27.3333C37.4511 31.3733 34.1577 34.6667 30.2677 34.6667ZM30.2677 36.75C28.5788 36.7521 26.9207 36.2972 25.4694 35.4333C22.9977 37.7417 21.1011 41.37 21.1011 45V54.5C21.1011 54.5 21.2677 56.5 23.4344 56.5H25.7677V60H39.9344V52.6383C39.2882 51.8207 38.8168 50.879 38.5494 49.8717C38.1877 48.5633 38.1577 47.2983 38.1961 46.4233C38.2204 45.9027 38.276 45.384 38.3627 44.87L38.3677 44.8333L38.3711 44.82V44.8133V44.81C38.3727 44.81 38.3727 44.8083 40.4177 45.2083V45.2117L40.4161 45.22L40.4111 45.2417C40.3896 45.3561 40.3718 45.4711 40.3577 45.5867C40.3179 45.8954 40.2912 46.2057 40.2777 46.5167C40.2444 47.27 40.2744 48.2983 40.5577 49.3183C40.8411 50.3433 41.3911 51.4183 42.4394 52.1633C43.3494 52.8133 44.5494 53.155 46.0811 53.09C46.3644 54.4633 46.4927 55.735 46.6144 56.96C46.6661 57.4733 46.7177 57.98 46.7777 58.4833C46.8022 58.6857 46.9 58.8721 47.0526 59.0073C47.2053 59.1424 47.4022 59.2169 47.6061 59.2167H59.6061C59.8271 59.2167 60.039 59.1289 60.1953 58.9726C60.3516 58.8163 60.4394 58.6043 60.4394 58.3833V54.2717C60.4393 54.175 60.4224 54.0792 60.3894 53.9883C60.1422 53.3071 59.9127 52.6197 59.7011 51.9267C58.7294 52.42 57.4677 52.5633 56.1161 52.5633C54.9494 52.5633 53.9827 52.3783 53.2327 51.925C52.4427 51.4483 52.0094 50.75 51.7911 49.9867C51.5844 49.265 51.5644 48.4617 51.5777 47.705C51.5827 47.355 51.5961 47.03 51.6094 46.7067C51.6261 46.2583 51.6427 45.8133 51.6427 45.3067C51.6427 45.0304 51.7525 44.7654 51.9478 44.5701C52.1432 44.3747 52.4081 44.265 52.6844 44.265C52.9607 44.265 53.2256 44.3747 53.421 44.5701C53.6163 44.7654 53.7261 45.0304 53.7261 45.3067C53.7261 45.8217 53.7061 46.375 53.6877 46.8767V46.8783C53.6761 47.195 53.6644 47.4917 53.6594 47.7433C53.6477 48.4733 53.6794 49.01 53.7944 49.4133C53.8977 49.775 54.0544 49.9883 54.3077 50.1417C54.6027 50.3183 55.1377 50.48 56.1161 50.48C57.9861 50.48 58.7827 50.1633 59.1361 49.7867C59.3394 49.2233 59.3594 48.5883 59.2761 47.92C59.1761 47.1167 58.9111 46.175 58.5227 45.095L58.4411 44.8517C58.0577 43.69 57.5861 42.2567 56.5627 41.1233C55.4127 39.8467 53.6627 39.035 50.9027 39.035C48.4994 39.035 46.9077 40.25 45.9444 41.4233C45.4649 42.0119 45.0694 42.6643 44.7694 43.3617L40.9811 44.575C40.8391 44.6205 40.7119 44.7033 40.6128 44.8147C40.5138 44.9261 40.4464 45.062 40.4177 45.2083L38.3727 44.8083C38.4732 44.2961 38.7093 43.8202 39.0564 43.4303C39.4035 43.0403 39.8489 42.7507 40.3461 42.5917L43.2911 41.6483C43.5444 41.1867 43.8861 40.6483 44.3344 40.1017C45.5677 38.5983 47.7011 36.9517 50.9011 36.9517C51.4061 36.9517 51.8894 36.975 52.3527 37.0233C54.5427 34.4717 54.9727 32.0233 53.7677 30.6667C52.2677 29.1667 49.9344 29.1667 48.2677 30.5L43.1011 34.6667C41.7677 35.6667 40.1011 35.6667 38.7677 34.8333L37.0961 33.69C35.3794 35.5617 32.9527 36.75 30.2677 36.75Z" fill="#C19372"/>
</g>
<defs>
<clipPath id="clip0_3068_716">
<rect width="80" height="80" fill="white" transform="translate(0.77002)"/>
</clipPath>
</defs>
</svg>
