<svg width="79" height="79" viewBox="0 0 79 79" fill="none" xmlns="http://www.w3.org/2000/svg">
<g clip-path="url(#clip0_3059_975)">
<path d="M20.1087 33.7299C20.1087 27.2381 15.8221 21.9669 10.5646 21.9669C5.30712 21.9669 1.02051 27.2381 1.02051 33.7287C1.02051 40.2205 5.30712 45.4734 10.5646 45.4734C15.8221 45.4734 20.1087 40.2033 20.1087 33.7299ZM10.5646 42.1817C7.08404 42.1817 4.26294 38.3897 4.26294 33.7104C4.26294 29.0311 7.08404 25.2402 10.5646 25.2402C14.0452 25.2402 16.8297 29.0494 16.8297 33.7287C16.8297 38.4081 14.0452 42.1817 10.5646 42.1817ZM78.4359 33.7104C78.4359 27.237 74.1493 21.9669 68.8918 21.9669C63.6343 21.9669 59.3477 27.2381 59.3477 33.7287C59.2813 34.355 59.5755 34.9653 60.1033 35.2996C60.3621 35.4634 60.6621 35.5504 60.9683 35.5504C61.2746 35.5504 61.5746 35.4634 61.8333 35.2996C62.0935 35.1345 62.3022 34.8998 62.4357 34.6222C62.5693 34.3445 62.6224 34.035 62.589 33.7287C62.589 29.0689 65.4112 25.2586 68.8918 25.2586C72.3724 25.2586 75.1935 29.0494 75.1935 33.7287C75.1935 38.3897 72.3724 42.1817 68.8918 42.1817C68.6766 42.1826 68.4637 42.2259 68.2653 42.3092C68.0668 42.3925 67.8867 42.514 67.7353 42.6669C67.5839 42.8198 67.4641 43.0011 67.3828 43.2004C67.3015 43.3996 67.2602 43.6129 67.2614 43.8281C67.2604 44.0432 67.3017 44.2564 67.3831 44.4556C67.4645 44.6547 67.5843 44.8358 67.7357 44.9886C67.8871 45.1414 68.0671 45.2629 68.2655 45.346C68.4639 45.4292 68.6767 45.4725 68.8918 45.4734C74.1493 45.4734 78.4359 40.2022 78.4359 33.7104ZM51.6355 24.7594C56.893 24.7594 61.1796 19.4881 61.1796 12.9964C61.1796 6.50464 56.8747 1.2334 51.6355 1.2334C46.3963 1.2334 42.0913 6.50464 42.0913 12.9964C42.0913 19.4881 46.3413 24.7594 51.6355 24.7594ZM51.6355 4.52621C55.116 4.52621 57.9371 8.31707 57.9371 12.9964C57.9371 17.6757 55.0794 21.4677 51.6355 21.4677C48.1915 21.4677 45.3338 17.6757 45.3338 12.9964C45.3338 8.31707 48.1366 4.52621 51.6355 4.52621ZM27.821 24.7594C33.0785 24.7594 37.3651 19.4881 37.3651 12.9964C37.3651 6.50464 33.1151 1.2334 27.821 1.2334C22.5268 1.2334 18.2769 6.50464 18.2769 12.9964C18.2769 19.4881 22.5818 24.7594 27.821 24.7594ZM27.821 4.52621C31.3016 4.52621 34.1227 8.31707 34.1227 12.9964C34.1227 17.6757 31.3199 21.4677 27.821 21.4677C24.3221 21.4677 21.5193 17.6757 21.5193 12.9964C21.5193 8.31707 24.377 4.52621 27.821 4.52621ZM62.6268 54.2218L52.5514 36.4113C49.2174 30.5481 44.656 27.3114 39.7282 27.3114C34.8004 27.3114 30.2391 30.5481 26.905 36.4113L16.8297 54.2035C16.1604 55.3792 15.6081 56.6179 15.181 57.9016C14.5596 59.5376 14.2489 61.2752 14.265 63.0251C14.3417 70.3412 20.0343 76.3406 27.2714 76.7299H27.821C29.6529 76.7368 31.4664 76.3647 33.1518 75.6388C34.3608 75.1579 36.3759 74.2328 38.4642 73.2345L39.2153 73.5493C43.2797 75.4527 47.6825 76.5273 52.1667 76.7104C59.4141 76.3498 65.1387 70.3676 65.2464 63.0423C65.2056 61.3294 64.9029 59.6328 64.3487 58.0115C63.9031 56.6934 63.3262 55.4234 62.6268 54.2206V54.2218ZM52.1484 73.4382C48.8231 73.3275 45.5456 72.6129 42.476 71.3293L43.0989 71.0156L44.9308 70.1638C45.051 70.0928 45.162 70.0058 45.2605 69.905L48.8144 68.0743C49.6089 67.6609 49.9249 66.6775 49.5242 65.8714C49.4299 65.6801 49.2987 65.5093 49.1383 65.3687C48.9779 65.2281 48.7914 65.1204 48.5893 65.052C48.3873 64.9835 48.1738 64.9555 47.9609 64.9696C47.7481 64.9837 47.5401 65.0396 47.3489 65.1341L45.517 66.0214C42.6775 67.4823 37.933 69.9428 35.9362 70.7752L35.753 70.9045C34.2326 71.6258 32.822 72.2544 31.9427 72.6059C30.565 73.2314 29.0572 73.5168 27.5462 73.4382H27.3813C21.8799 73.1474 17.5407 68.6044 17.4525 63.0435C17.4567 63.0004 17.4567 62.9571 17.4525 62.9141C17.4594 61.5917 17.7078 60.2807 18.1853 59.0488C18.5493 57.9554 19.0211 56.9021 19.5958 55.9048L29.6529 38.0566C32.3824 33.2479 35.9362 30.6592 39.6733 30.6592C43.4103 30.6592 47.0008 33.304 49.6937 38.0577L59.824 55.8682C60.3964 56.8666 60.8682 57.9199 61.2345 59.0122C61.6959 60.3071 61.9558 61.6684 62.0039 63.0435C61.9261 68.5815 57.6246 73.1188 52.1484 73.4382Z" fill="#886750"/>
</g>
<defs>
<clipPath id="clip0_3059_975">
<rect width="79" height="79" fill="white" transform="translate(-0.00976562)"/>
</clipPath>
</defs>
</svg>
