<svg width="154" height="32" viewBox="0 0 154 32" fill="none" xmlns="http://www.w3.org/2000/svg">
<g clip-path="url(#clip0_3554_1324)">
<path d="M49.8722 25.4933C49.1013 25.5351 48.3388 25.3161 47.7077 24.8717C47.444 24.6764 47.2319 24.4199 47.0896 24.1243C46.9474 23.8286 46.8792 23.5028 46.8913 23.1751V11.1692C46.8849 11.1183 46.8903 11.0667 46.907 11.0183C46.9236 10.9699 46.9511 10.9259 46.9874 10.8897C47.0236 10.8534 47.0677 10.826 47.1161 10.8093C47.1646 10.7926 47.2163 10.7873 47.2671 10.7936H49.4445C49.6907 10.7936 49.8074 10.9231 49.8074 11.1692V22.2426C49.8074 22.7347 50.0278 22.9808 50.4813 22.9808C50.6736 22.9888 50.866 22.9669 51.0516 22.9161C51.3108 22.9161 51.4534 22.9937 51.4664 23.2269L51.6608 24.8458C51.6701 24.893 51.6693 24.9417 51.6582 24.9885C51.6471 25.0353 51.6261 25.0792 51.5967 25.1173C51.5672 25.1553 51.5299 25.1867 51.4873 25.2091C51.4447 25.2315 51.3978 25.2446 51.3497 25.2474C50.8727 25.4048 50.3744 25.4878 49.8722 25.4933Z" fill="#282938"/>
<path d="M62.1213 24.1072C61.0272 25.0105 59.6524 25.5046 58.2331 25.5046C56.8138 25.5046 55.439 25.0105 54.3449 24.1072C53.3833 23.1371 52.8438 21.8268 52.8438 20.4613C52.8438 19.0959 53.3833 17.7856 54.3449 16.8155C55.4412 15.9169 56.8152 15.4258 58.2331 15.4258C59.651 15.4258 61.0251 15.9169 62.1213 16.8155C63.0608 17.7946 63.5853 19.0985 63.5853 20.4549C63.5853 21.8113 63.0608 23.1152 62.1213 24.0943V24.1072ZM56.3927 22.3975C56.9004 22.8572 57.561 23.1118 58.2461 23.1118C58.9311 23.1118 59.5918 22.8572 60.0994 22.3975C60.559 21.8697 60.8121 21.1934 60.8121 20.4938C60.8121 19.794 60.559 19.1179 60.0994 18.5899C59.5918 18.1303 58.9311 17.8757 58.2461 17.8757C57.561 17.8757 56.9004 18.1303 56.3927 18.5899C55.9331 19.1179 55.6801 19.794 55.6801 20.4938C55.6801 21.1934 55.9331 21.8697 56.3927 22.3975Z" fill="#282938"/>
<path d="M75.5747 15.7522C75.821 15.7522 75.9376 15.8818 75.9376 16.1279V25.4139C75.9602 26.0407 75.8428 26.6646 75.594 27.2404C75.3452 27.8162 74.9711 28.3292 74.499 28.7425C73.451 29.6355 72.1033 30.0982 70.7274 30.0376C69.4846 30.0813 68.2585 29.7422 67.2151 29.0663C66.7694 28.7738 66.3888 28.393 66.0967 27.9474C65.8046 27.5019 65.6074 27.001 65.5172 26.476C65.5172 26.2169 65.5172 26.1004 65.8671 26.1004H68.0446C68.137 26.1036 68.2265 26.1333 68.3024 26.1862C68.3783 26.239 68.4373 26.3127 68.4722 26.3983C68.6134 26.7917 68.895 27.1191 69.2628 27.3178C69.7111 27.549 70.2101 27.6647 70.7145 27.6546C71.0187 27.6713 71.3234 27.6271 71.6104 27.5248C71.8975 27.4225 72.1613 27.2642 72.3864 27.0588C72.5921 26.844 72.752 26.5899 72.8567 26.3116C72.9614 26.0334 73.0086 25.7368 72.9955 25.4399V24.624C72.2159 25.197 71.2671 25.4932 70.2997 25.4658C69.6226 25.4904 68.9476 25.378 68.315 25.1354C67.6825 24.8929 67.1056 24.5251 66.6189 24.054C65.6845 23.0881 65.1621 21.7971 65.1621 20.4536C65.1621 19.11 65.6845 17.8191 66.6189 16.8531C67.108 16.3863 67.6856 16.022 68.3177 15.7818C68.9499 15.5416 69.6238 15.4303 70.2997 15.4544C71.2951 15.4281 72.2694 15.7435 73.0603 16.348V16.1408C73.0543 16.0912 73.0596 16.0408 73.0755 15.9935C73.0914 15.9461 73.1178 15.9028 73.1525 15.8669C73.1872 15.8309 73.2295 15.8031 73.2764 15.7856C73.3233 15.7679 73.3734 15.761 73.4233 15.7652L75.5747 15.7522ZM70.546 23.1604C70.8799 23.1707 71.212 23.1077 71.5188 22.9756C71.8256 22.8436 72.0997 22.6458 72.3216 22.3963C72.7525 21.8403 72.9863 21.1569 72.9863 20.4536C72.9863 19.7504 72.7525 19.067 72.3216 18.5109C72.1004 18.2647 71.8281 18.0699 71.5235 17.9402C71.2191 17.8104 70.8898 17.7488 70.5589 17.7597C70.2212 17.7491 69.8851 17.812 69.5741 17.9439C69.263 18.0758 68.9843 18.2737 68.7574 18.5238C68.28 19.0557 68.029 19.7526 68.0575 20.4665C68.0341 21.1734 68.2795 21.863 68.7444 22.3963C68.9719 22.6457 69.2507 22.8432 69.5616 22.9751C69.8726 23.1069 70.2083 23.1702 70.546 23.1604Z" fill="#282938"/>
<path d="M87.1206 24.1054C86.0243 25.004 84.6503 25.4951 83.2324 25.4951C81.8145 25.4951 80.4404 25.004 79.3442 24.1054C78.4038 23.1241 77.8789 21.8181 77.8789 20.4596C77.8789 19.101 78.4038 17.7949 79.3442 16.8137C80.4414 15.9174 81.8151 15.4277 83.2324 15.4277C84.6496 15.4277 86.0233 15.9174 87.1206 16.8137C88.0601 17.7927 88.5846 19.0967 88.5846 20.4531C88.5846 21.8095 88.0601 23.1134 87.1206 24.0924V24.1054ZM81.379 22.3958C81.6275 22.632 81.9204 22.8165 82.2407 22.9389C82.5611 23.0611 82.9025 23.1187 83.2453 23.1081C83.586 23.1169 83.925 23.0586 84.243 22.9364C84.561 22.8141 84.8518 22.6304 85.0987 22.3958C85.5508 21.8643 85.799 21.1895 85.799 20.4919C85.799 19.7944 85.5508 19.1196 85.0987 18.5881C84.8518 18.3535 84.561 18.1698 84.243 18.0475C83.925 17.9253 83.586 17.867 83.2453 17.8757C82.9025 17.8652 82.5611 17.9228 82.2407 18.045C81.9204 18.1673 81.6275 18.3519 81.379 18.5881C80.927 19.1196 80.6788 19.7944 80.6788 20.4919C80.6788 21.1895 80.927 21.8643 81.379 22.3958Z" fill="#282938"/>
<path d="M93.2642 13.5523C92.9217 13.852 92.4818 14.0171 92.0265 14.0171C91.5712 14.0171 91.1314 13.852 90.7887 13.5523C90.6334 13.4058 90.5096 13.2291 90.4251 13.0332C90.3405 12.8371 90.2969 12.6259 90.2969 12.4126C90.2969 12.1991 90.3405 11.9879 90.4251 11.792C90.5096 11.596 90.6334 11.4193 90.7887 11.2729C91.1349 10.9806 91.5733 10.8203 92.0265 10.8203C92.4796 10.8203 92.9181 10.9806 93.2642 11.2729C93.4196 11.4193 93.5433 11.596 93.6279 11.792C93.7125 11.9879 93.7561 12.1991 93.7561 12.4126C93.7561 12.6259 93.7125 12.8371 93.6279 13.0332C93.5433 13.2291 93.4196 13.4058 93.2642 13.5523ZM93.5365 25.4934C92.766 25.5312 92.0048 25.3126 91.372 24.8717C91.1123 24.6735 90.9038 24.4161 90.7641 24.121C90.6242 23.8258 90.5572 23.5015 90.5684 23.1751V16.1296C90.5621 16.0787 90.5676 16.0271 90.5842 15.9787C90.6008 15.9303 90.6283 15.8863 90.6646 15.8501C90.7008 15.8139 90.7449 15.7864 90.7934 15.7697C90.8418 15.7531 90.8934 15.7477 90.9443 15.754H93.1217C93.368 15.754 93.4846 15.8835 93.4846 16.1296V22.2427C93.4846 22.7347 93.705 22.9808 94.1456 22.9808C94.3421 22.988 94.5387 22.9661 94.7288 22.9161C94.988 22.9161 95.1306 22.9938 95.1436 23.2269L95.3379 24.8459C95.3473 24.8931 95.3464 24.9417 95.3354 24.9886C95.3243 25.0353 95.3033 25.0793 95.2739 25.1173C95.2444 25.1554 95.207 25.1867 95.1645 25.2091C95.1219 25.2316 95.075 25.2446 95.0269 25.2474C94.5457 25.4057 94.043 25.4887 93.5365 25.4934Z" fill="#282938"/>
<path d="M103.349 15.4429C104.03 15.4161 104.708 15.5261 105.345 15.7663C105.982 16.0066 106.563 16.3724 107.056 16.8417C107.973 17.8246 108.483 19.1182 108.483 20.4616C108.483 21.805 107.973 23.0986 107.056 24.0816C106.567 24.5551 105.985 24.9243 105.348 25.167C104.711 25.4096 104.031 25.5206 103.349 25.4932C102.379 25.5148 101.428 25.2192 100.641 24.6514V29.3268C100.641 29.5729 100.511 29.6895 100.265 29.6895H98.0876C98.0379 29.6987 97.9867 29.6958 97.9384 29.6808C97.8901 29.6659 97.8462 29.6394 97.8104 29.6037C97.7747 29.568 97.7482 29.5241 97.7333 29.4758C97.7183 29.4276 97.7154 29.3764 97.7247 29.3268V18.7067C97.7399 18.6029 97.7307 18.4968 97.6976 18.3971C97.6646 18.2975 97.6087 18.2069 97.5344 18.1327C97.4601 18.0584 97.3695 18.0026 97.2697 17.9696C97.17 17.9365 97.0639 17.9273 96.96 17.9425H96.5322C96.2472 17.9425 96.1045 17.839 96.1045 17.6317V16.1034C96.0979 16.0089 96.1238 15.9149 96.1781 15.8371C96.2323 15.7593 96.3116 15.7025 96.4026 15.6761C96.851 15.5132 97.3255 15.4342 97.8024 15.4429C98.2781 15.4009 98.7554 15.5016 99.1734 15.7324C99.5913 15.9632 99.9308 16.3133 100.148 16.7381C100.566 16.3161 101.065 15.9836 101.615 15.7609C102.166 15.5382 102.756 15.43 103.349 15.4429ZM101.328 22.3979C101.559 22.6392 101.836 22.8313 102.144 22.9625C102.451 23.0937 102.782 23.1613 103.116 23.1613C103.451 23.1613 103.782 23.0937 104.089 22.9625C104.396 22.8313 104.674 22.6392 104.905 22.3979C105.392 21.8553 105.648 21.1444 105.618 20.4163C105.652 19.6876 105.395 18.9751 104.905 18.4347C104.674 18.1934 104.396 18.0013 104.089 17.8701C103.782 17.7389 103.451 17.6712 103.116 17.6712C102.782 17.6712 102.451 17.7389 102.144 17.8701C101.836 18.0013 101.559 18.1934 101.328 18.4347C100.856 18.9846 100.611 19.6927 100.641 20.4163C100.615 21.1393 100.86 21.846 101.328 22.3979Z" fill="#282938"/>
<path d="M114.598 25.4916C113.434 25.5394 112.281 25.2613 111.267 24.6886C110.86 24.4439 110.514 24.1106 110.253 23.7137C109.993 23.3169 109.826 22.8667 109.763 22.3963C109.763 22.1372 109.855 22.0077 110.139 22.0077H112.045C112.135 22.0112 112.224 22.0397 112.299 22.09C112.375 22.1403 112.434 22.2104 112.472 22.2926C112.744 22.992 113.457 23.3417 114.598 23.3417C114.996 23.3599 115.392 23.2798 115.752 23.1085C115.875 23.0526 115.982 22.964 116.06 22.8522C116.137 22.7404 116.183 22.6097 116.193 22.474C116.193 22.1372 115.985 21.9041 115.57 21.7486C115.078 21.585 114.569 21.4764 114.054 21.4249C113.443 21.3558 112.837 21.2476 112.239 21.1011C111.658 20.9697 111.13 20.6674 110.723 20.2334C110.483 19.9383 110.307 19.5971 110.204 19.2309C110.101 18.8647 110.076 18.4814 110.128 18.1049C110.18 17.7283 110.31 17.3665 110.508 17.0419C110.706 16.7174 110.969 16.4371 111.28 16.2184C112.215 15.6237 113.31 15.3341 114.416 15.3895C115.488 15.3534 116.548 15.6181 117.475 16.1537C117.849 16.3653 118.171 16.6577 118.418 17.0094C118.664 17.3612 118.829 17.7635 118.901 18.187C118.901 18.446 118.784 18.5756 118.551 18.5756H116.633C116.552 18.5803 116.472 18.5607 116.402 18.5191C116.333 18.4775 116.278 18.4159 116.244 18.3425C116.115 18.0357 115.874 17.7899 115.57 17.656C115.226 17.4764 114.843 17.3873 114.455 17.397C114.075 17.3764 113.696 17.4521 113.353 17.6172C113.233 17.6638 113.129 17.7453 113.055 17.8515C112.982 17.9578 112.94 18.0836 112.939 18.2129C112.948 18.3901 113.012 18.5599 113.124 18.6974C113.236 18.8349 113.389 18.9329 113.561 18.9771C114.059 19.1645 114.576 19.2949 115.103 19.3657C115.71 19.4454 116.311 19.5578 116.905 19.7024C117.486 19.8337 118.014 20.1359 118.422 20.5701C118.639 20.8093 118.808 21.0892 118.917 21.3937C119.026 21.6983 119.073 22.0215 119.056 22.3445C119.068 22.7921 118.963 23.2351 118.751 23.63C118.54 24.0251 118.23 24.3585 117.851 24.598C116.883 25.2192 115.748 25.5309 114.598 25.4916Z" fill="#282938"/>
<path d="M132.757 24.8458C132.764 24.8918 132.762 24.9388 132.752 24.984C132.741 25.0293 132.72 25.0718 132.692 25.1093C132.665 25.1466 132.63 25.1781 132.59 25.2019C132.55 25.2255 132.505 25.241 132.459 25.2473C131.986 25.4017 131.492 25.4846 130.995 25.4934C130.502 25.5444 130.004 25.4675 129.55 25.27C129.096 25.0726 128.701 24.7615 128.402 24.3667C127.487 25.1531 126.303 25.5567 125.098 25.4934C124.537 25.5192 123.978 25.4276 123.456 25.2247C122.934 25.0216 122.46 24.7117 122.064 24.3148C121.672 23.8988 121.367 23.4081 121.169 22.8717C120.971 22.3354 120.884 21.7645 120.911 21.1935V16.1295C120.911 15.8835 121.027 15.7539 121.274 15.7539H123.452C123.697 15.7539 123.814 15.8835 123.814 16.1295V20.805C123.791 21.3875 123.99 21.9572 124.372 22.398C124.562 22.5999 124.794 22.7588 125.05 22.8638C125.308 22.9688 125.584 23.0175 125.862 23.0068C126.146 23.0191 126.43 22.9752 126.697 22.8774C126.963 22.7796 127.209 22.6299 127.417 22.4368C127.615 22.2335 127.769 21.9917 127.869 21.7267C127.969 21.4616 128.014 21.1787 128.001 20.8957V16.1295C128.001 15.8835 128.117 15.7539 128.363 15.7539H130.567C130.813 15.7539 130.929 15.8835 130.929 16.1295V22.2297C130.929 22.7348 131.15 22.9808 131.578 22.9808C131.778 22.9886 131.98 22.9668 132.174 22.916C132.223 22.9023 132.274 22.8999 132.325 22.9089C132.375 22.9179 132.422 22.938 132.463 22.9679C132.504 22.9979 132.538 23.0367 132.562 23.0816C132.586 23.1264 132.6 23.176 132.602 23.2269L132.757 24.8458Z" fill="#282938"/>
<path d="M153.351 24.8452C153.362 24.8915 153.363 24.9399 153.354 24.9868C153.344 25.0336 153.325 25.0778 153.296 25.1162C153.267 25.1546 153.232 25.1862 153.189 25.2087C153.147 25.2313 153.1 25.2442 153.053 25.2467C152.571 25.4032 152.068 25.4862 151.562 25.4927C150.792 25.5324 150.03 25.3137 149.397 24.8711C149.124 24.6814 148.902 24.4274 148.75 24.1314C148.599 23.8355 148.523 23.5068 148.53 23.1744V20.1308C148.556 19.5501 148.362 18.9807 147.984 18.5378C147.803 18.3354 147.579 18.1758 147.327 18.0705C147.077 17.9653 146.806 17.917 146.533 17.9291C146.288 17.9198 146.044 17.9664 145.82 18.0651C145.595 18.1638 145.396 18.3122 145.238 18.499C144.895 18.933 144.72 19.4753 144.745 20.0273V24.8063C144.745 25.0524 144.628 25.1819 144.382 25.1819H142.191C142.141 25.1882 142.089 25.1828 142.04 25.1662C141.992 25.1496 141.948 25.122 141.912 25.0859C141.876 25.0496 141.848 25.0056 141.831 24.9571C141.814 24.9087 141.809 24.8571 141.815 24.8063V20.1308C141.844 19.5565 141.664 18.991 141.31 18.5378C141.152 18.3475 140.954 18.1942 140.73 18.089C140.506 17.9838 140.261 17.9292 140.014 17.9291C139.749 17.9185 139.486 17.9637 139.24 18.0619C138.994 18.1601 138.773 18.3091 138.589 18.499C138.218 18.9192 138.027 19.4679 138.057 20.0273V24.8063C138.063 24.8571 138.058 24.9087 138.041 24.9571C138.024 25.0056 137.997 25.0496 137.96 25.0859C137.924 25.122 137.88 25.1496 137.832 25.1662C137.784 25.1828 137.732 25.1882 137.681 25.1819H135.569C135.322 25.1819 135.205 25.0524 135.205 24.8063V18.7062C135.221 18.6024 135.211 18.4964 135.179 18.3966C135.146 18.297 135.089 18.2064 135.015 18.1322C134.941 18.058 134.85 18.0021 134.75 17.9691C134.651 17.936 134.545 17.9269 134.441 17.9421H134.013C133.728 17.9421 133.585 17.8385 133.585 17.6312V16.103C133.579 16.0084 133.604 15.9144 133.659 15.8366C133.713 15.7589 133.792 15.702 133.884 15.6756C134.331 15.5127 134.806 15.4337 135.283 15.4424C135.741 15.4035 136.2 15.4946 136.609 15.7055C137.017 15.9163 137.358 16.2382 137.591 16.634C138.027 16.2198 138.546 15.9003 139.112 15.6953C139.678 15.4903 140.281 15.4042 140.883 15.4424C141.466 15.414 142.049 15.5234 142.582 15.762C143.116 16.0005 143.586 16.3613 143.954 16.8153C144.383 16.3495 144.91 15.9847 145.497 15.7472C146.085 15.5098 146.717 15.4057 147.35 15.4424C147.916 15.416 148.48 15.5071 149.009 15.71C149.538 15.9128 150.019 16.223 150.421 16.621C150.815 17.0361 151.12 17.5268 151.319 18.0633C151.517 18.5999 151.604 19.1711 151.575 19.7423V22.2419C151.575 22.7341 151.795 22.9802 152.21 22.9802C152.411 22.9896 152.612 22.9677 152.806 22.9154C153.074 22.9154 153.216 23.019 153.234 23.2263L153.351 24.8452Z" fill="#282938"/>
<path d="M1.37319 14.0707C2.32939 10.2302 4.54394 6.8198 7.6642 4.38248C10.7844 1.94517 14.6311 0.621094 18.5915 0.621094C22.552 0.621094 26.3985 1.94517 29.5188 4.38248C32.6391 6.8198 34.8537 10.2302 35.8099 14.0707H34.2546C31.6309 14.0321 29.061 14.8157 26.9058 16.3113C26.7814 16.4013 26.6516 16.4835 26.517 16.5574H26.3356C26.201 16.4835 26.0711 16.4013 25.9467 16.3113C23.7725 14.8503 21.2117 14.07 18.5915 14.07C15.9713 14.07 13.4106 14.8503 11.2363 16.3113C11.1119 16.4013 10.9821 16.4835 10.8475 16.5574H10.666C10.5315 16.4835 10.4016 16.4013 10.2772 16.3113C8.12202 14.8157 5.55215 14.0321 2.92847 14.0707H1.37319ZM31.455 22.1913C32.2534 21.57 33.243 21.2449 34.2546 21.2717H36.3413V17.1143H34.2546C32.4727 17.0927 30.7317 17.647 29.2906 18.6944C28.4796 19.2919 27.4986 19.6141 26.4911 19.6141C25.4836 19.6141 24.5026 19.2919 23.6916 18.6944C22.2139 17.6666 20.4567 17.1156 18.6563 17.1156C16.856 17.1156 15.0987 17.6666 13.6211 18.6944C12.8101 19.2919 11.829 19.6141 10.8216 19.6141C9.81405 19.6141 8.833 19.2919 8.02205 18.6944C6.56319 17.6335 4.79715 17.0787 2.99328 17.1143H0.841797V21.2717H2.92847C3.94007 21.2449 4.9296 21.57 5.72799 22.1913C7.20293 23.2198 8.95819 23.7712 10.7568 23.7712C12.5553 23.7712 14.3106 23.2198 15.7856 22.1913C16.585 21.5718 17.5737 21.2471 18.5851 21.2717C19.5969 21.2427 20.5872 21.568 21.3846 22.1913C22.8622 23.2191 24.6194 23.7701 26.4198 23.7701C28.2202 23.7701 29.9774 23.2191 31.455 22.1913ZM31.455 29.6254C32.2534 29.0041 33.243 28.679 34.2546 28.7059H36.3413V24.5484H34.2546C32.4727 24.5269 30.7317 25.0811 29.2906 26.1285C28.4796 26.726 27.4986 27.0483 26.4911 27.0483C25.4836 27.0483 24.5026 26.726 23.6916 26.1285C22.2139 25.1006 20.4567 24.5497 18.6563 24.5497C16.856 24.5497 15.0987 25.1006 13.6211 26.1285C12.8101 26.726 11.829 27.0483 10.8216 27.0483C9.81405 27.0483 8.833 26.726 8.02205 26.1285C6.56319 25.0677 4.79715 24.5128 2.99328 24.5484H0.841797V28.7059H2.92847C3.94007 28.679 4.9296 29.0041 5.72799 29.6254C7.20293 30.6539 8.95819 31.2054 10.7568 31.2054C12.5553 31.2054 14.3106 30.6539 15.7856 29.6254C16.585 29.0059 17.5737 28.6812 18.5851 28.7059C19.5969 28.6768 20.5872 29.0021 21.3846 29.6254C22.8622 30.6532 24.6194 31.2042 26.4198 31.2042C28.2202 31.2042 29.9774 30.6532 31.455 29.6254Z" fill="#282938"/>
</g>
<defs>
<clipPath id="clip0_3554_1324">
<rect width="153" height="32" fill="white" transform="translate(0.5)"/>
</clipPath>
</defs>
</svg>
