<svg width="137" height="32" viewBox="0 0 137 32" fill="none" xmlns="http://www.w3.org/2000/svg">
<g clip-path="url(#clip0_3554_1308)">
<path d="M33.4336 7.80664H36.5525V22.9685H33.4336V7.80664Z" fill="#282938"/>
<path d="M38.2974 17.7742C38.2974 16.6833 38.6183 15.6171 39.2194 14.7105C39.8206 13.804 40.6748 13.0979 41.674 12.6819C42.6731 12.2659 43.7722 12.1587 44.8318 12.3738C45.8914 12.589 46.8639 13.1167 47.626 13.8903C48.3881 14.6638 48.9055 15.6483 49.1125 16.7189C49.3196 17.7896 49.207 18.8981 48.7891 19.9042C48.3712 20.9102 47.6668 21.7683 46.7651 22.3698C45.8634 22.9713 44.8051 23.2891 43.7243 23.2829C43.0074 23.2885 42.2967 23.1496 41.6336 22.8744C40.9707 22.5992 40.3688 22.1931 39.8633 21.6801C39.3578 21.167 38.9589 20.5572 38.6901 19.8865C38.4212 19.2158 38.2876 18.4976 38.2974 17.7742ZM46.1155 17.7742C46.1032 17.3039 45.9538 16.8477 45.686 16.4627C45.4182 16.0776 45.0439 15.7808 44.6098 15.6093C44.1757 15.4379 43.7012 15.3995 43.2456 15.4987C42.79 15.598 42.3734 15.8307 42.0482 16.1676C41.7229 16.5046 41.5032 16.9309 41.4167 17.3931C41.3302 17.8553 41.3806 18.3331 41.5617 18.7666C41.7428 19.2001 42.0465 19.57 42.4349 19.8302C42.8232 20.0905 43.2789 20.2293 43.7451 20.2295C44.0625 20.2357 44.3776 20.1758 44.671 20.0536C44.9644 19.9312 45.2297 19.7492 45.4502 19.5188C45.6707 19.2884 45.8418 19.0145 45.9526 18.7143C46.0635 18.4141 46.1119 18.0941 46.0947 17.7742H46.1155Z" fill="#282938"/>
<path d="M61.4925 12.5807V22.4543C61.4925 25.9379 58.7894 27.4173 56.0552 27.4173C55.0907 27.4972 54.1234 27.3038 53.2619 26.859C52.4004 26.414 51.6792 25.7353 51.1792 24.8991L53.8095 23.3672C54.0227 23.8009 54.3617 24.1587 54.7815 24.3931C55.2013 24.6274 55.6818 24.727 56.1591 24.6788C56.4632 24.7165 56.7718 24.6861 57.0628 24.5895C57.3539 24.4929 57.6201 24.3327 57.8427 24.1201C58.0652 23.9076 58.2384 23.648 58.3499 23.36C58.4614 23.072 58.5086 22.7628 58.4879 22.4543V21.4995C58.125 21.9436 57.6645 22.2963 57.1429 22.5294C56.6214 22.7625 56.0531 22.8697 55.4834 22.8425C54.1047 22.8425 52.7826 22.2898 51.8077 21.3059C50.8328 20.322 50.2852 18.9876 50.2852 17.5962C50.2852 16.2048 50.8328 14.8704 51.8077 13.8865C52.7826 12.9026 54.1047 12.3498 55.4834 12.3498C56.0531 12.3227 56.6214 12.4299 57.1429 12.663C57.6645 12.8961 58.125 13.2488 58.4879 13.6929V12.6437L61.4925 12.5807ZM58.4879 17.5647C58.5086 17.0627 58.3802 16.566 58.1189 16.1382C57.8576 15.7106 57.4756 15.3715 57.0219 15.1647C56.5682 14.9579 56.0635 14.8928 55.5728 14.9778C55.0823 15.0629 54.628 15.294 54.2686 15.6416C53.9091 15.9893 53.661 16.4375 53.556 16.9286C53.4509 17.4198 53.4939 17.9314 53.6793 18.3977C53.8647 18.864 54.1841 19.2636 54.5964 19.5452C55.0086 19.8268 55.4949 19.9776 55.9928 19.9781C56.3177 20.0016 56.6438 19.9562 56.9501 19.8447C57.2565 19.7332 57.5363 19.5581 57.7715 19.3307C58.0066 19.1032 58.1918 18.8286 58.3153 18.5244C58.4387 18.2202 58.4975 17.8933 58.4879 17.5647Z" fill="#282938"/>
<path d="M63.2504 17.7743C63.2504 16.6843 63.5707 15.6189 64.1709 14.7128C64.7711 13.8066 65.6242 13.1005 66.6221 12.684C67.6201 12.2673 68.7181 12.1588 69.7771 12.3723C70.8361 12.5857 71.8087 13.1114 72.5716 13.8828C73.3345 14.6543 73.8535 15.6367 74.0629 16.706C74.2724 17.7753 74.1628 18.8832 73.7481 19.8896C73.3334 20.896 72.6322 21.7556 71.7332 22.3596C70.8343 22.9637 69.778 23.285 68.6981 23.2829C67.9798 23.2899 67.2674 23.1521 66.6027 22.8777C65.9379 22.6032 65.3341 22.1976 64.8267 21.6845C64.3193 21.1714 63.9185 20.5613 63.6478 19.8898C63.3771 19.2184 63.242 18.4991 63.2504 17.7743ZM71.0685 17.7743C71.0562 17.3035 70.9065 16.8469 70.6383 16.4617C70.37 16.0765 69.995 15.7796 69.5604 15.6085C69.1256 15.4374 68.6506 15.3995 68.1948 15.4996C67.7389 15.5998 67.3224 15.8335 66.9975 16.1715C66.6727 16.5094 66.4538 16.9367 66.3685 17.3996C66.2832 17.8625 66.3351 18.3407 66.5177 18.774C66.7004 19.2072 67.0058 19.5765 67.3954 19.8354C67.7851 20.0943 68.2419 20.2315 68.7085 20.2296C69.0259 20.2358 69.341 20.1759 69.6344 20.0536C69.9278 19.9313 70.1931 19.7493 70.4136 19.5188C70.6341 19.2884 70.8052 19.0145 70.916 18.7144C71.0269 18.4142 71.0753 18.0942 71.0581 17.7743H71.0685Z" fill="#282938"/>
<path d="M75.5898 9.7993C75.5898 9.4299 75.6984 9.06888 75.9017 8.76168C76.1051 8.45456 76.3941 8.21513 76.7323 8.07381C77.0704 7.93245 77.4425 7.89546 77.8014 7.96753C78.1604 8.03959 78.4902 8.21751 78.749 8.47868C79.0078 8.73985 79.184 9.07265 79.2555 9.43499C79.3268 9.79725 79.2902 10.1728 79.1501 10.514C79.01 10.8554 78.7728 11.1471 78.4686 11.3523C78.1642 11.5575 77.8064 11.667 77.4404 11.667C76.9513 11.6616 76.4838 11.4631 76.1379 11.1139C75.792 10.7649 75.5953 10.293 75.5898 9.7993ZM75.8913 12.5799H79.0103V22.9676H75.8913V12.5799Z" fill="#282938"/>
<path d="M92.3591 17.7738C92.3943 18.4647 92.2935 19.1557 92.0625 19.807C91.8323 20.4584 91.4759 21.0574 91.0147 21.5693C90.5542 22.0813 89.9971 22.4963 89.3769 22.7903C88.7567 23.0843 88.0849 23.2515 87.4 23.2825C86.8191 23.3215 86.2366 23.2276 85.6967 23.0078C85.1568 22.7879 84.6726 22.4479 84.281 22.0129V27.1438H81.1621V12.58H84.281V13.5558C84.6734 13.1221 85.1576 12.7836 85.6975 12.5655C86.2374 12.3475 86.82 12.2556 87.4 12.2966C88.0816 12.3276 88.751 12.4939 89.3695 12.786C89.9881 13.078 90.5428 13.4901 91.0032 13.9987C91.4636 14.5073 91.8208 15.1025 92.0535 15.7502C92.2862 16.398 92.3894 17.0856 92.3591 17.7738ZM89.2401 17.7738C89.2278 17.2865 89.073 16.8136 88.7961 16.4146C88.5183 16.0155 88.1308 15.708 87.681 15.5305C87.2304 15.353 86.7388 15.3135 86.2669 15.4169C85.795 15.5203 85.3633 15.762 85.0274 16.1117C84.6907 16.4615 84.4637 16.9036 84.3752 17.3828C84.2867 17.8621 84.34 18.357 84.5293 18.8057C84.7185 19.2543 85.0339 19.6366 85.4378 19.9048C85.8409 20.173 86.3136 20.3149 86.797 20.313C87.128 20.3272 87.4582 20.2706 87.7654 20.1471C88.0734 20.0235 88.3512 19.8356 88.5822 19.5958C88.8133 19.3561 88.991 19.0698 89.1041 18.7558C89.2172 18.4419 89.2639 18.1072 89.2401 17.7738Z" fill="#282938"/>
<path d="M101.851 19.8522C101.851 22.2446 99.7716 23.2624 97.5677 23.2624C96.6689 23.344 95.7661 23.1517 94.9763 22.7102C94.1874 22.2688 93.5467 21.5986 93.1387 20.7861L95.821 19.2542C95.9275 19.6286 96.1577 19.9548 96.474 20.1782C96.7902 20.4017 97.172 20.5089 97.557 20.4818C98.2952 20.4818 98.6696 20.251 98.6696 19.8312C98.6696 18.6876 93.6065 19.2962 93.6065 15.6972C93.6065 13.4307 95.499 12.2975 97.6406 12.2975C98.455 12.2608 99.2636 12.4471 99.9813 12.8369C100.698 13.2268 101.298 13.8054 101.716 14.5115L99.0334 15.9385C98.9154 15.6678 98.7212 15.4375 98.4763 15.2755C98.2305 15.1135 97.9437 15.0267 97.6513 15.0256C97.1105 15.0256 96.7877 15.2355 96.7877 15.6027C96.7877 16.7989 101.851 16.0119 101.851 19.8522Z" fill="#282938"/>
<path d="M113.152 12.5801V22.9679H110.033V21.992C109.679 22.4239 109.229 22.7658 108.719 22.99C108.211 23.2142 107.656 23.3144 107.101 23.2826C105.022 23.2826 103.244 21.7822 103.244 18.9807V12.5801H106.363V18.5084C106.339 18.7563 106.368 19.0066 106.448 19.242C106.529 19.4774 106.66 19.6923 106.83 19.8718C107.001 20.0514 107.209 20.1914 107.439 20.2821C107.669 20.3728 107.916 20.412 108.161 20.3971C109.285 20.3971 110.074 19.7256 110.074 18.2986V12.5801H113.152Z" fill="#282938"/>
<path d="M130.826 16.5874V22.9669H127.707V16.8602C127.707 15.8109 127.218 15.1604 126.23 15.1604C125.242 15.1604 124.619 15.8843 124.619 17.112V22.9669H121.5V16.8602C121.5 15.8109 121.012 15.1604 120.023 15.1604C119.036 15.1604 118.412 15.8843 118.412 17.112V22.9669H115.293V12.5791H118.412V13.534C118.735 13.1122 119.157 12.7781 119.64 12.5619C120.123 12.3458 120.651 12.2543 121.178 12.2958C121.705 12.2681 122.231 12.3793 122.703 12.6184C123.174 12.8575 123.577 13.2164 123.87 13.6599C124.212 13.1966 124.666 12.8285 125.188 12.5899C125.71 12.3514 126.283 12.2502 126.854 12.2958C129.287 12.2958 130.826 13.9957 130.826 16.5874Z" fill="#282938"/>
<path d="M14.855 5.07852V0.619141H0.923828V31.2577H14.855V26.7983C12.0013 26.7983 9.2643 25.6542 7.24636 23.6175C5.22841 21.5809 4.09474 18.8187 4.09474 15.9384C4.09474 13.0582 5.22841 10.2959 7.24636 8.25934C9.2643 6.22269 12.0013 5.07852 14.855 5.07852Z" fill="#282938"/>
<path d="M14.8535 5.07812V26.7979C17.7073 26.7979 20.4443 25.6538 22.4622 23.6171C24.4802 21.5805 25.6138 18.8183 25.6138 15.938C25.6138 13.0578 24.4802 10.2955 22.4622 8.25894C20.4443 6.22229 17.7073 5.07812 14.8535 5.07812Z" fill="#282938"/>
<path d="M133.446 12.5172C134.709 12.5172 135.733 11.4836 135.733 10.2088C135.733 8.9339 134.709 7.90039 133.446 7.90039C132.182 7.90039 131.158 8.9339 131.158 10.2088C131.158 11.4836 132.182 12.5172 133.446 12.5172Z" fill="#282938"/>
</g>
<defs>
<clipPath id="clip0_3554_1308">
<rect width="136" height="32" fill="white" transform="translate(0.5)"/>
</clipPath>
</defs>
</svg>
